<svg width="26" height="26" viewBox="0 0 26 26" fill="none" xmlns="http://www.w3.org/2000/svg">
<path fill-rule="evenodd" clip-rule="evenodd" d="M3.29289 12.0711C2.90237 11.6805 2.90237 11.0474 3.29289 10.6569L9.65685 4.29289C10.0474 3.90237 10.6805 3.90237 11.0711 4.29289C11.4616 4.68342 11.4616 5.31658 11.0711 5.70711L6.41421 10.364H20.375C21.8247 10.364 23 11.5392 23 12.989V21C23 21.5523 22.5523 22 22 22C21.4477 22 21 21.5523 21 21V13.4005C21 12.8281 20.5359 12.364 19.9634 12.364H6.41421L11.0711 17.0208C11.4616 17.4113 11.4616 18.0445 11.0711 18.435C10.6805 18.8256 10.0474 18.8256 9.65685 18.435L3.29289 12.0711Z" fill="#3F4046"/>
</svg>
