<svg width="26" height="26" viewBox="0 0 26 26" fill="none" xmlns="http://www.w3.org/2000/svg">
<path fill-rule="evenodd" clip-rule="evenodd" d="M22.7071 13.9289C23.0976 14.3195 23.0976 14.9526 22.7071 15.3431L16.3431 21.7071C15.9526 22.0976 15.3195 22.0976 14.9289 21.7071C14.5384 21.3166 14.5384 20.6834 14.9289 20.2929L19.5858 15.636L5.625 15.636C4.17525 15.636 3 14.4608 3 13.011L3 5C3 4.44771 3.44772 4 4 4C4.55229 4 5 4.44771 5 5L5 12.5995C5 13.1719 5.4641 13.636 6.03659 13.636L19.5858 13.636L14.9289 8.97918C14.5384 8.58866 14.5384 7.9555 14.9289 7.56497C15.3195 7.17445 15.9526 7.17445 16.3431 7.56497L22.7071 13.9289Z" fill="#B9B5D0"/>
</svg>
