<svg width="222" height="142" viewBox="0 0 222 142" fill="none" xmlns="http://www.w3.org/2000/svg">
<path fill-rule="evenodd" clip-rule="evenodd" d="M25.0699 20.9672H7.47659V11.577C7.47659 6.91774 11.4276 3.11865 16.2732 3.11865C21.1188 3.11865 25.0699 6.91774 25.0699 11.577V20.9672ZM11.4649 17.1323H21.0816V11.6128C21.0816 9.06818 18.9197 6.98942 16.2732 6.98942C13.6268 6.98942 11.4649 9.06818 11.4649 11.6128V17.1323Z" fill="#6E32ED"/>
<path d="M16.273 34.8729C9.82461 34.8729 4.64355 29.8553 4.64355 23.6907V14.2646H27.9025V23.6907C27.9025 29.8553 22.7214 34.8729 16.273 34.8729Z" fill="#7295F0"/>
<path d="M18.845 21.2897C18.845 19.6769 17.2795 18.4583 15.5649 18.8884C14.7448 19.1035 14.0366 19.7486 13.813 20.5371C13.403 21.8632 14.1112 23.0459 15.1921 23.5477L14.2975 27.0242C13.9993 28.2428 14.9685 29.4255 16.273 29.4255C17.5776 29.4255 18.5468 28.2428 18.2486 27.0242L17.354 23.5477C18.2113 23.1534 18.845 22.2933 18.845 21.2897Z" fill="#3F4046"/>
<path fill-rule="evenodd" clip-rule="evenodd" d="M25.4984 25.3494C25.7399 25.399 25.894 25.6276 25.8424 25.8599C24.9795 29.7441 21.1524 32.8247 17.0311 32.9379C16.7842 32.9447 16.5783 32.7577 16.5712 32.5203C16.5641 32.2829 16.7586 32.0849 17.0055 32.0781C20.7118 31.9763 24.1903 29.1791 24.9675 25.6802C25.0191 25.4479 25.2568 25.2998 25.4984 25.3494Z" fill="#3F4046"/>
<path d="M32.0027 98.8847C32.0027 103.723 24.9952 107.63 16.3104 107.63C7.66281 107.63 0.618027 103.723 0.618027 98.8847V93.9028H32.0027V98.8847Z" fill="#FFA24B"/>
<path d="M32.0027 93.9033C32.0027 98.7418 24.9952 102.684 16.3104 102.684C7.66281 102.684 0.618027 98.7418 0.618027 93.9033C0.618027 89.0648 7.66281 85.1582 16.3104 85.1582C24.9952 85.1582 32.0027 89.0648 32.0027 93.9033Z" fill="#FFA24B"/>
<path fill-rule="evenodd" clip-rule="evenodd" d="M0.618063 93.4731C0.865093 93.4731 1.06535 93.6657 1.06535 93.9032C1.06535 96.1049 2.67194 98.1839 5.44638 99.7364C8.20913 101.282 12.0518 102.254 16.3104 102.254C20.5879 102.254 24.4304 101.282 27.1881 99.7365C29.957 98.1846 31.5554 96.1057 31.5554 93.9032C31.5554 93.6657 31.7557 93.4731 32.0027 93.4731C32.2497 93.4731 32.45 93.6657 32.45 93.9032C32.45 96.5392 30.5446 98.8508 27.6386 100.48C24.7214 102.115 20.7177 103.114 16.3104 103.114C11.9215 103.114 7.91795 102.115 4.99642 100.48C2.08658 98.8515 0.170776 96.5401 0.170776 93.9032C0.170776 93.6657 0.371034 93.4731 0.618063 93.4731Z" fill="#3F4046"/>
<path fill-rule="evenodd" clip-rule="evenodd" d="M5.55362 99.8889C5.80051 99.8971 5.99374 100.096 5.98523 100.334C5.93553 101.719 5.88585 103.117 5.83616 104.527C5.82779 104.764 5.62086 104.95 5.37397 104.942C5.12708 104.934 4.93373 104.735 4.9421 104.498C4.9918 103.088 5.04148 101.69 5.09119 100.304C5.0997 100.067 5.30674 99.8807 5.55362 99.8889Z" fill="#3F4046"/>
<path fill-rule="evenodd" clip-rule="evenodd" d="M9.41335 101.539C9.65959 101.558 9.84324 101.765 9.82354 102.002C9.72412 103.197 9.62471 104.38 9.52529 105.551C9.5052 105.788 9.28931 105.964 9.0431 105.945C8.79689 105.925 8.61359 105.718 8.63369 105.481C8.73306 104.31 8.83244 103.128 8.93181 101.933C8.95151 101.697 9.1671 101.52 9.41335 101.539Z" fill="#3F4046"/>
<path fill-rule="evenodd" clip-rule="evenodd" d="M11.4814 102.183C11.7283 102.192 11.921 102.391 11.9118 102.629C11.8621 103.919 11.8124 105.221 11.7627 106.535C11.7537 106.772 11.5463 106.958 11.2995 106.949C11.0526 106.94 10.8598 106.741 10.8687 106.504C10.9184 105.189 10.9682 103.887 11.0179 102.597C11.027 102.359 11.2345 102.174 11.4814 102.183Z" fill="#3F4046"/>
<path fill-rule="evenodd" clip-rule="evenodd" d="M18.681 102.183C18.9279 102.175 19.1348 102.361 19.143 102.598C19.1928 104.034 19.2301 105.47 19.255 106.906C19.2591 107.144 19.0622 107.34 18.8152 107.344C18.5682 107.348 18.3647 107.158 18.3606 106.921C18.3358 105.49 18.2985 104.058 18.2489 102.627C18.2407 102.39 18.4342 102.191 18.681 102.183Z" fill="#3F4046"/>
<path fill-rule="evenodd" clip-rule="evenodd" d="M24.6402 101.286C24.8871 101.296 25.0793 101.496 25.0697 101.733C25.0201 102.949 24.9829 104.165 24.9581 105.38C24.9533 105.618 24.7491 105.807 24.5021 105.802C24.2552 105.797 24.0589 105.601 24.0637 105.364C24.0886 104.142 24.126 102.921 24.1758 101.699C24.1855 101.462 24.3934 101.277 24.6402 101.286Z" fill="#3F4046"/>
<path fill-rule="evenodd" clip-rule="evenodd" d="M29.4309 98.7422C29.6779 98.7422 29.8782 98.9347 29.8782 99.1723V102.613C29.8782 102.85 29.6779 103.043 29.4309 103.043C29.1839 103.043 28.9836 102.85 28.9836 102.613V99.1723C28.9836 98.9347 29.1839 98.7422 29.4309 98.7422Z" fill="#3F4046"/>
<path fill-rule="evenodd" clip-rule="evenodd" d="M2.22085 97.7383C2.46788 97.7383 2.66813 97.9308 2.66813 98.1684V101.967C2.66813 102.205 2.46788 102.398 2.22085 102.398C1.97382 102.398 1.77356 102.205 1.77356 101.967V98.1684C1.77356 97.9308 1.97382 97.7383 2.22085 97.7383Z" fill="#3F4046"/>
<path d="M32.0027 89.746C32.0027 94.5844 24.9952 98.4911 16.3104 98.4911C7.66281 98.4911 0.618027 94.5844 0.618027 89.746V84.7642H32.0027V89.746Z" fill="#FFA24B"/>
<path d="M32.0027 84.7638C32.0027 89.6023 24.9952 93.5089 16.3104 93.5089C7.66281 93.5089 0.618027 89.6023 0.618027 84.7638C0.618027 79.9254 7.66281 75.9829 16.3104 75.9829C24.9952 75.9829 32.0027 79.9254 32.0027 84.7638Z" fill="#FFA24B"/>
<path fill-rule="evenodd" clip-rule="evenodd" d="M0.618063 84.3335C0.865093 84.3335 1.06535 84.5261 1.06535 84.7636C1.06535 86.9646 2.67118 89.0346 5.44543 90.5783C8.20813 92.1156 12.0511 93.0786 16.3104 93.0786C20.5887 93.0786 24.4314 92.1154 27.1891 90.5784C29.9578 89.0353 31.5554 86.9655 31.5554 84.7636C31.5554 84.5261 31.7557 84.3335 32.0027 84.3335C32.2497 84.3335 32.45 84.5261 32.45 84.7636C32.45 87.4001 30.5439 89.7029 27.6377 91.3226C24.7204 92.9486 20.717 93.9387 16.3104 93.9387C11.9222 93.9387 7.91894 92.9485 4.99737 91.3228C2.08734 89.7036 0.170776 87.401 0.170776 84.7636C0.170776 84.5261 0.371034 84.3335 0.618063 84.3335Z" fill="#3F4046"/>
<path fill-rule="evenodd" clip-rule="evenodd" d="M5.55362 90.7498C5.80051 90.758 5.99374 90.957 5.98523 91.1944L5.83615 95.3519C5.82763 95.5893 5.62059 95.7751 5.37371 95.7669C5.12683 95.7587 4.93359 95.5597 4.9421 95.3223L5.09119 91.1648C5.0997 90.9274 5.30674 90.7416 5.55362 90.7498Z" fill="#3F4046"/>
<path fill-rule="evenodd" clip-rule="evenodd" d="M9.41407 92.3994C9.66028 92.4187 9.84358 92.6263 9.82348 92.8631L9.52529 96.3754C9.5052 96.6122 9.28931 96.7884 9.0431 96.7691C8.79689 96.7498 8.61359 96.5422 8.63369 96.3054L8.93187 92.7931C8.95197 92.5563 9.16786 92.3801 9.41407 92.3994Z" fill="#3F4046"/>
<path fill-rule="evenodd" clip-rule="evenodd" d="M11.4811 93.0076C11.728 93.0162 11.9208 93.2157 11.9118 93.453L11.7627 97.3955C11.7537 97.6329 11.5463 97.8183 11.2995 97.8097C11.0526 97.801 10.8598 97.6016 10.8687 97.3642L11.0178 93.4218C11.0268 93.1844 11.2342 92.999 11.4811 93.0076Z" fill="#3F4046"/>
<path fill-rule="evenodd" clip-rule="evenodd" d="M18.681 93.0076C18.9279 92.9997 19.1348 93.1857 19.143 93.4231C19.1928 94.8591 19.2301 96.2951 19.255 97.7311C19.2591 97.9686 19.0622 98.1643 18.8152 98.1683C18.5682 98.1723 18.3647 97.9829 18.3606 97.7454C18.3358 96.3142 18.2985 94.883 18.2489 93.4517C18.2407 93.2143 18.4342 93.0155 18.681 93.0076Z" fill="#3F4046"/>
<path fill-rule="evenodd" clip-rule="evenodd" d="M24.6399 92.1117C24.8868 92.1208 25.0792 92.3206 25.0697 92.5579C25.0201 93.7978 24.9829 95.0256 24.9581 96.2414C24.9533 96.4789 24.7491 96.6677 24.5021 96.663C24.2552 96.6583 24.0589 96.462 24.0637 96.2246C24.0886 95.0032 24.126 93.77 24.1758 92.5249C24.1853 92.2875 24.3931 92.1025 24.6399 92.1117Z" fill="#3F4046"/>
<path fill-rule="evenodd" clip-rule="evenodd" d="M29.4309 89.6025C29.6779 89.6025 29.8782 89.7951 29.8782 90.0326V93.4375C29.8782 93.675 29.6779 93.8676 29.4309 93.8676C29.1839 93.8676 28.9836 93.675 28.9836 93.4375V90.0326C28.9836 89.7951 29.1839 89.6025 29.4309 89.6025Z" fill="#3F4046"/>
<path fill-rule="evenodd" clip-rule="evenodd" d="M2.22085 88.5986C2.46788 88.5986 2.66813 88.7912 2.66813 89.0287V92.792C2.66813 93.0295 2.46788 93.2221 2.22085 93.2221C1.97382 93.2221 1.77356 93.0295 1.77356 92.792V89.0287C1.77356 88.7912 1.97382 88.5986 2.22085 88.5986Z" fill="#3F4046"/>
<path d="M32.0027 80.5697C32.0027 85.4082 24.9952 89.3148 16.3104 89.3148C7.66281 89.3148 0.618027 85.4082 0.618027 80.5697V75.5879H32.0027V80.5697Z" fill="#FFA24B"/>
<path d="M32.0027 75.5883C32.0027 80.4268 24.9952 84.3334 16.3104 84.3334C7.66281 84.3334 0.618027 80.4268 0.618027 75.5883C0.618027 70.7499 7.66281 66.8433 16.3104 66.8433C24.9952 66.8433 32.0027 70.7499 32.0027 75.5883Z" fill="#FFA24B"/>
<path fill-rule="evenodd" clip-rule="evenodd" d="M0.618063 75.1587C0.865093 75.1587 1.06535 75.3512 1.06535 75.5888C1.06535 77.7898 2.67118 79.8598 5.44543 81.4035C8.20813 82.9407 12.0511 83.9038 16.3104 83.9038C20.5887 83.9038 24.4314 82.9406 27.1891 81.4036C29.9578 79.8605 31.5554 77.7907 31.5554 75.5888C31.5554 75.3512 31.7557 75.1587 32.0027 75.1587C32.2497 75.1587 32.45 75.3512 32.45 75.5888C32.45 78.2253 30.5439 80.5281 27.6377 82.1478C24.7204 83.7738 20.717 84.7639 16.3104 84.7639C11.9222 84.7639 7.91894 83.7736 4.99737 82.148C2.08734 80.5288 0.170776 78.2262 0.170776 75.5888C0.170776 75.3512 0.371034 75.1587 0.618063 75.1587Z" fill="#3F4046"/>
<path fill-rule="evenodd" clip-rule="evenodd" d="M5.55362 81.574C5.80051 81.5822 5.99374 81.7813 5.98523 82.0186C5.93553 83.4044 5.88585 84.8021 5.83616 86.2117C5.82779 86.4491 5.62086 86.635 5.37397 86.627C5.12708 86.619 4.93373 86.42 4.9421 86.1826C4.9918 84.7728 5.04148 83.3749 5.09119 81.989C5.0997 81.7516 5.30674 81.5658 5.55362 81.574Z" fill="#3F4046"/>
<path fill-rule="evenodd" clip-rule="evenodd" d="M9.41407 83.2241C9.66028 83.2434 9.84358 83.451 9.82348 83.6878C9.7241 84.8583 9.62473 86.0408 9.52535 87.2353C9.50565 87.472 9.29006 87.6486 9.04382 87.6297C8.79758 87.6107 8.61393 87.4034 8.63363 87.1667C8.73304 85.9718 8.83245 84.7888 8.93187 83.6178C8.95197 83.381 9.16786 83.2048 9.41407 83.2241Z" fill="#3F4046"/>
<path fill-rule="evenodd" clip-rule="evenodd" d="M11.4814 83.868C11.7283 83.8768 11.921 84.0763 11.9118 84.3137C11.8621 85.6038 11.8124 86.906 11.7627 88.22C11.7537 88.4574 11.5463 88.6428 11.2995 88.6342C11.0526 88.6255 10.8598 88.4261 10.8687 88.1887C10.9184 86.8745 10.9682 85.5722 11.0179 84.2818C11.027 84.0445 11.2345 83.8592 11.4814 83.868Z" fill="#3F4046"/>
<path fill-rule="evenodd" clip-rule="evenodd" d="M18.681 83.8679C18.9279 83.86 19.1348 84.046 19.143 84.2834C19.1928 85.7194 19.2301 87.1554 19.255 88.5915C19.2591 88.829 19.0622 89.0247 18.8152 89.0286C18.5682 89.0326 18.3647 88.8433 18.3606 88.6058C18.3358 87.1746 18.2985 85.7433 18.2489 84.3121C18.2407 84.0747 18.4342 83.8758 18.681 83.8679Z" fill="#3F4046"/>
<path fill-rule="evenodd" clip-rule="evenodd" d="M24.6402 82.972C24.8871 82.9813 25.0793 83.1813 25.0697 83.4186C25.0201 84.6344 24.9829 85.8502 24.9581 87.0659C24.9533 87.3034 24.7491 87.4922 24.5021 87.4875C24.2552 87.4829 24.0589 87.2866 24.0637 87.0491C24.0886 85.8277 24.126 84.6063 24.1758 83.3849C24.1855 83.1476 24.3934 82.9627 24.6402 82.972Z" fill="#3F4046"/>
<path fill-rule="evenodd" clip-rule="evenodd" d="M29.4309 80.4263C29.6779 80.4263 29.8782 80.6188 29.8782 80.8564V84.297C29.8782 84.5346 29.6779 84.7271 29.4309 84.7271C29.1839 84.7271 28.9836 84.5346 28.9836 84.297V80.8564C28.9836 80.6188 29.1839 80.4263 29.4309 80.4263Z" fill="#3F4046"/>
<path fill-rule="evenodd" clip-rule="evenodd" d="M2.22085 79.4233C2.46788 79.4233 2.66813 79.6159 2.66813 79.8534V83.6525C2.66813 83.89 2.46788 84.0826 2.22085 84.0826C1.97382 84.0826 1.77356 83.89 1.77356 83.6525V79.8534C1.77356 79.6159 1.97382 79.4233 2.22085 79.4233Z" fill="#3F4046"/>
<path d="M32.0027 71.3952C32.0027 76.2337 24.9952 80.1761 16.3104 80.1761C7.66281 80.1761 0.618027 76.2337 0.618027 71.3952V66.4492H32.0027V71.3952Z" fill="#FFA24B"/>
<path d="M32.0027 66.4489C32.0027 71.2515 24.9952 75.194 16.3104 75.194C7.66281 75.194 0.618027 71.2515 0.618027 66.4489C0.618027 61.6104 7.66281 57.668 16.3104 57.668C24.9952 57.668 32.0027 61.6104 32.0027 66.4489Z" fill="#FFA24B"/>
<path fill-rule="evenodd" clip-rule="evenodd" d="M0.618063 66.019C0.865093 66.019 1.06535 66.2116 1.06535 66.4491C1.06535 68.6317 2.67048 70.702 5.44591 72.2507C8.20892 73.7925 12.0518 74.7641 16.3104 74.7641C20.5879 74.7641 24.4306 73.7923 27.1886 72.2508C29.9585 70.7027 31.5554 68.6326 31.5554 66.4491C31.5554 66.2116 31.7557 66.019 32.0027 66.019C32.2497 66.019 32.45 66.2116 32.45 66.4491C32.45 69.0683 30.5432 71.3708 27.6381 72.9945C24.7212 74.6248 20.7177 75.6243 16.3104 75.6243C11.9214 75.6243 7.91816 74.6247 4.99689 72.9946C2.08804 71.3715 0.170776 69.0691 0.170776 66.4491C0.170776 66.2116 0.371034 66.019 0.618063 66.019Z" fill="#3F4046"/>
<path fill-rule="evenodd" clip-rule="evenodd" d="M5.55336 72.3987C5.80025 72.4067 5.99361 72.6057 5.98524 72.8431C5.93554 74.2529 5.88585 75.6508 5.83615 77.0367C5.82763 77.2741 5.62059 77.4599 5.37371 77.4517C5.12683 77.4435 4.93359 77.2444 4.9421 77.007C4.9918 75.6213 5.04148 74.2236 5.09118 72.814C5.09955 72.5766 5.30647 72.3906 5.55336 72.3987Z" fill="#3F4046"/>
<path fill-rule="evenodd" clip-rule="evenodd" d="M9.41335 74.0488C9.65959 74.0677 9.84324 74.275 9.82354 74.5118C9.72412 75.7067 9.62471 76.8896 9.52529 78.0607C9.5052 78.2974 9.28931 78.4737 9.0431 78.4543C8.79689 78.435 8.61359 78.2274 8.63369 77.9907C8.73306 76.8201 8.83244 75.6376 8.93181 74.4432C8.95151 74.2064 9.1671 74.0298 9.41335 74.0488Z" fill="#3F4046"/>
<path fill-rule="evenodd" clip-rule="evenodd" d="M11.4811 74.6922C11.728 74.7008 11.9208 74.9002 11.9118 75.1376C11.8621 76.4519 11.8124 77.7542 11.7627 79.0445C11.7536 79.2819 11.546 79.4672 11.2992 79.4584C11.0523 79.4496 10.8596 79.2501 10.8688 79.0127C10.9184 77.7225 10.9681 76.4204 11.0178 75.1064C11.0268 74.869 11.2342 74.6836 11.4811 74.6922Z" fill="#3F4046"/>
<path fill-rule="evenodd" clip-rule="evenodd" d="M18.681 74.6921C18.9279 74.6842 19.1348 74.8703 19.143 75.1077C19.1928 76.5437 19.2301 77.9797 19.255 79.4157C19.2591 79.6532 19.0622 79.8489 18.8152 79.8529C18.5682 79.8568 18.3647 79.6675 18.3606 79.43C18.3358 77.9988 18.2985 76.5676 18.2489 75.1363C18.2407 74.8989 18.4342 74.7001 18.681 74.6921Z" fill="#3F4046"/>
<path fill-rule="evenodd" clip-rule="evenodd" d="M24.6402 73.7967C24.8871 73.806 25.0793 74.006 25.0697 74.2433C25.0201 75.459 24.9829 76.6867 24.9581 77.9263C24.9534 78.1638 24.7493 78.3526 24.5023 78.3481C24.2553 78.3435 24.0589 78.1473 24.0637 77.9098C24.0886 76.6645 24.126 75.4311 24.1758 74.2096C24.1855 73.9723 24.3934 73.7874 24.6402 73.7967Z" fill="#3F4046"/>
<path fill-rule="evenodd" clip-rule="evenodd" d="M29.4309 71.2876C29.6779 71.2876 29.8782 71.4802 29.8782 71.7177V75.1225C29.8782 75.3601 29.6779 75.5526 29.4309 75.5526C29.1839 75.5526 28.9836 75.3601 28.9836 75.1225V71.7177C28.9836 71.4802 29.1839 71.2876 29.4309 71.2876Z" fill="#3F4046"/>
<path fill-rule="evenodd" clip-rule="evenodd" d="M2.22085 70.2476C2.46788 70.2476 2.66813 70.4401 2.66813 70.6776V74.4767C2.66813 74.7143 2.46788 74.9068 2.22085 74.9068C1.97382 74.9068 1.77356 74.7143 1.77356 74.4767V70.6776C1.77356 70.4401 1.97382 70.2476 2.22085 70.2476Z" fill="#3F4046"/>
<path d="M32.0027 55.0883C32.0027 59.9267 24.9952 63.8333 16.3104 63.8333C7.66281 63.8333 0.618027 59.9267 0.618027 55.0883V50.1064H32.0027V55.0883Z" fill="#FFA24B"/>
<path d="M32.0027 50.1054C32.0027 54.9439 24.9952 58.8505 16.3104 58.8505C7.66281 58.8505 0.618027 54.9439 0.618027 50.1054C0.618027 45.267 7.66281 41.3604 16.3104 41.3604C24.9952 41.3604 32.0027 45.267 32.0027 50.1054Z" fill="#FFA24B"/>
<path fill-rule="evenodd" clip-rule="evenodd" d="M0.618063 49.6758C0.865093 49.6758 1.06535 49.8683 1.06535 50.1059C1.06535 52.3069 2.67118 54.3769 5.44543 55.9206C8.20813 57.4578 12.0511 58.4209 16.3104 58.4209C20.5887 58.4209 24.4314 57.4577 27.1891 55.9207C29.9578 54.3776 31.5554 52.3078 31.5554 50.1059C31.5554 49.8683 31.7557 49.6758 32.0027 49.6758C32.2497 49.6758 32.45 49.8683 32.45 50.1059C32.45 52.7424 30.5439 55.0451 27.6377 56.6649C24.7204 58.2908 20.717 59.281 16.3104 59.281C11.9222 59.281 7.91894 58.2907 4.99737 56.6651C2.08734 55.0458 0.170776 52.7433 0.170776 50.1059C0.170776 49.8683 0.371034 49.6758 0.618063 49.6758Z" fill="#3F4046"/>
<path fill-rule="evenodd" clip-rule="evenodd" d="M5.55362 56.0916C5.80051 56.0998 5.99374 56.2988 5.98523 56.5362L5.83615 60.6937C5.82763 60.9311 5.62059 61.1169 5.37371 61.1087C5.12683 61.1005 4.93359 60.9015 4.9421 60.6641L5.09119 56.5066C5.0997 56.2692 5.30674 56.0834 5.55362 56.0916Z" fill="#3F4046"/>
<path fill-rule="evenodd" clip-rule="evenodd" d="M9.41407 57.7412C9.66028 57.7605 9.84358 57.9681 9.82348 58.2048C9.7241 59.3754 9.62473 60.5579 9.52535 61.7524C9.50565 61.9891 9.29006 62.1657 9.04382 62.1468C8.79758 62.1278 8.61393 61.9205 8.63363 61.6838C8.73304 60.4889 8.83245 59.3059 8.93187 58.1349C8.95197 57.8981 9.16786 57.7219 9.41407 57.7412Z" fill="#3F4046"/>
<path fill-rule="evenodd" clip-rule="evenodd" d="M11.4811 58.3489C11.728 58.3576 11.9208 58.557 11.9118 58.7944L11.7627 62.7368C11.7537 62.9742 11.5463 63.1596 11.2995 63.151C11.0526 63.1423 10.8598 62.9429 10.8687 62.7055L11.0178 58.7631C11.0268 58.5257 11.2342 58.3403 11.4811 58.3489Z" fill="#3F4046"/>
<path fill-rule="evenodd" clip-rule="evenodd" d="M18.681 58.3489C18.9279 58.341 19.1348 58.527 19.143 58.7644C19.1928 60.2004 19.2301 61.6364 19.255 63.0724C19.2591 63.3099 19.0622 63.5056 18.8152 63.5096C18.5682 63.5136 18.3647 63.3242 18.3606 63.0867C18.3358 61.6555 18.2985 60.2243 18.2489 58.7931C18.2407 58.5557 18.4342 58.3568 18.681 58.3489Z" fill="#3F4046"/>
<path fill-rule="evenodd" clip-rule="evenodd" d="M24.6402 57.4891C24.8871 57.4984 25.0793 57.6984 25.0697 57.9357C25.0201 59.1515 24.9829 60.3673 24.9581 61.583C24.9533 61.8205 24.7491 62.0093 24.5021 62.0046C24.2552 61.9999 24.0589 61.8036 24.0637 61.5662C24.0886 60.3448 24.126 59.1234 24.1758 57.902C24.1855 57.6647 24.3934 57.4798 24.6402 57.4891Z" fill="#3F4046"/>
<path fill-rule="evenodd" clip-rule="evenodd" d="M29.4309 54.9443C29.6779 54.9443 29.8782 55.1369 29.8782 55.3744V58.7793C29.8782 59.0168 29.6779 59.2094 29.4309 59.2094C29.1839 59.2094 28.9836 59.0168 28.9836 58.7793V55.3744C28.9836 55.1369 29.1839 54.9443 29.4309 54.9443Z" fill="#3F4046"/>
<path fill-rule="evenodd" clip-rule="evenodd" d="M2.22085 53.9409C2.46788 53.9409 2.66813 54.1335 2.66813 54.371V58.1701C2.66813 58.4076 2.46788 58.6002 2.22085 58.6002C1.97382 58.6002 1.77356 58.4076 1.77356 58.1701V54.371C1.77356 54.1335 1.97382 53.9409 2.22085 53.9409Z" fill="#3F4046"/>
<path d="M126.99 142H188.364C191.542 142 194.302 139.527 195.008 136.086L221.715 6.59445C222.357 3.40464 220.207 0.394043 217.286 0.394043H155.911C152.733 0.394043 149.973 2.83119 149.267 6.30772L122.56 135.799C121.918 138.953 124.069 142 126.99 142Z" fill="#7295F0"/>
<path fill-rule="evenodd" clip-rule="evenodd" d="M179.954 4.44408C179.954 3.24722 180.8 2.25781 181.912 2.25781C182.996 2.25781 183.838 3.25193 183.838 4.44408C183.838 5.63624 182.996 6.63035 181.912 6.63035C180.8 6.63035 179.954 5.64094 179.954 4.44408ZM181.912 2.97462C181.162 2.97462 180.596 3.63388 180.596 4.44408C180.596 5.25429 181.162 5.91354 181.912 5.91354C182.625 5.91354 183.196 5.25899 183.196 4.44408C183.196 3.62917 182.625 2.97462 181.912 2.97462Z" fill="white"/>
<path fill-rule="evenodd" clip-rule="evenodd" d="M218.16 1.94371C218.333 1.98794 218.441 2.1802 218.401 2.37313L190.153 139.965C190.114 140.158 189.942 140.278 189.769 140.234C189.596 140.19 189.488 139.997 189.528 139.805L217.775 2.21298C217.815 2.02004 217.987 1.89948 218.16 1.94371Z" fill="white"/>
<path d="M190.45 3.2251C188.653 7.06003 185.09 9.56886 181.109 9.56886C177.867 9.56886 175.396 6.66578 175.396 3.2251H153.022L126.572 131.534H188.813L215.263 3.2251H190.45Z" fill="white"/>
<path d="M85.8703 79.6733C84.8752 73.0786 81.6653 67.0216 76.9467 62.9357C72.5811 59.1008 68.2798 55.3017 63.9142 51.4668C62.855 52.3986 62.534 54.2982 63.0476 55.696C64.3316 59.2561 65.6155 62.8163 66.8995 66.3764C64.2032 65.3371 61.4426 64.0468 58.7783 63.0074C52.4547 60.4986 39.1013 57.0221 39.1013 57.0221C38.7161 57.7389 38.4594 59.1725 40.7705 60.8212C44.2052 63.2583 51.5238 67.7025 51.5238 67.7025C51.5238 67.7025 40.3853 64.2618 34.8 62.4698C34.1901 63.7242 34.479 65.4804 36.8544 67.1291C41.7656 70.5698 52.3584 75.3366 52.3584 75.3366C52.3584 75.3366 39.8396 73.4012 33.5802 72.1468C33.0024 73.2578 34.0617 75.3724 36.2445 76.3759C40.7063 78.4905 51.1066 82.5763 51.1066 82.5763C51.1066 82.5763 42.2792 81.071 37.8495 80.8918C37.3359 81.8237 37.8174 83.2573 40.0322 84.225C43.3385 85.6228 51.6523 88.3825 51.6523 88.3825C51.6523 88.3825 66.0649 97.1634 73.5441 101.285L90.942 85.3002C89.3371 83.544 87.4753 81.3936 85.8703 79.6733Z" fill="#FFDBD0"/>
<path fill-rule="evenodd" clip-rule="evenodd" d="M67.4698 67.6312C67.6821 67.6463 67.8433 67.8506 67.8298 68.0877C67.5466 73.0775 68.8693 78.1731 71.542 82.1754C71.6691 82.3658 71.634 82.6353 71.4634 82.7773C71.2929 82.9193 71.0515 82.88 70.9244 82.6896C68.1401 78.5202 66.7665 73.2222 67.061 68.0333C67.0745 67.7962 67.2575 67.6162 67.4698 67.6312Z" fill="#3F4046"/>
<path fill-rule="evenodd" clip-rule="evenodd" d="M61.4267 71.8426C61.6302 71.9119 61.7448 72.1522 61.6827 72.3794C60.5269 76.6093 59.3604 80.8392 58.1833 85.0691C58.1201 85.2959 57.9043 85.4227 57.7011 85.3522C57.498 85.2817 57.3845 85.0407 57.4476 84.8138C58.6244 80.5854 59.7905 76.3569 60.9459 72.1284C61.0079 71.9012 61.2232 71.7733 61.4267 71.8426Z" fill="#3F4046"/>
<path fill-rule="evenodd" clip-rule="evenodd" d="M49.3123 81.9119C49.3394 81.6763 49.5325 81.5099 49.7435 81.5402C51.243 81.7554 52.7532 81.9827 54.2741 82.2218C54.4848 82.255 54.6315 82.4725 54.6018 82.7077C54.5721 82.9429 54.3773 83.1067 54.1667 83.0736C52.6488 82.8349 51.1416 82.6081 49.6452 82.3933C49.4342 82.363 49.2852 82.1475 49.3123 81.9119Z" fill="#3F4046"/>
<path fill-rule="evenodd" clip-rule="evenodd" d="M50.5102 74.757C50.5664 74.5279 50.7783 74.3931 50.9835 74.4558C52.7807 75.0052 54.5886 75.5547 56.4072 76.1041C56.6126 76.1662 56.734 76.4023 56.6784 76.6316C56.6228 76.8609 56.4113 76.9965 56.206 76.9344C54.3866 76.3848 52.578 75.8351 50.78 75.2854C50.5749 75.2227 50.4541 74.9861 50.5102 74.757Z" fill="#3F4046"/>
<path fill-rule="evenodd" clip-rule="evenodd" d="M49.3611 66.9554C49.4293 66.7304 49.648 66.6098 49.8495 66.6859C52.6948 67.7608 55.5401 68.8238 58.3855 69.8748C58.5874 69.9494 58.697 70.1927 58.6302 70.4182C58.5634 70.6437 58.3455 70.766 58.1435 70.6914C55.2965 69.6398 52.4495 68.5762 49.6026 67.5007C49.401 67.4246 49.293 67.1804 49.3611 66.9554Z" fill="#3F4046"/>
<path d="M136.363 131.535C134.758 126.768 133.217 121.213 131.612 116.446C128.98 121.643 126.091 126.804 122.239 130.926C118.355 135.083 113.38 138.165 108.019 138.488C102.658 138.811 97.2977 136.158 93.7667 131.678C85.7739 121.571 77.4602 111.966 69.4995 101.859C75.6947 93.9025 82.4998 85.7667 88.695 77.8101C93.8309 82.4335 99.5446 86.9853 104.648 91.6087C109.463 79.5305 114.31 67.058 123.619 58.9222C128.07 55.0275 132.511 51.1448 136.941 47.2741C138.321 49.0302 140.632 49.747 142.718 49.4245C144.805 49.1019 146.699 47.8117 148.111 46.0913C149.556 44.371 150.583 42.2922 151.353 40.106C160.726 41.5037 169.907 42.2564 179.248 43.6542C188.492 45.0519 197.127 48.5285 204.67 54.6213L188.813 131.535H136.363Z" fill="#6E32ED"/>
<path fill-rule="evenodd" clip-rule="evenodd" d="M104.344 91.094C104.474 90.9062 104.716 90.8719 104.884 91.0173L115.413 100.121C115.581 100.266 115.612 100.536 115.482 100.724C115.351 100.912 115.109 100.946 114.941 100.801L104.413 91.6974C104.244 91.552 104.214 91.2818 104.344 91.094Z" fill="#3F4046"/>
<path fill-rule="evenodd" clip-rule="evenodd" d="M157.195 42.162C157.401 42.221 157.525 42.4554 157.472 42.6854C156.498 46.925 154.804 51.0876 152.014 54.2765L152.012 54.2782C149.22 57.4322 145.194 59.474 141.201 58.9911C137.178 58.5085 133.391 55.206 132.582 50.7278C132.54 50.4949 132.675 50.2681 132.884 50.2211C133.092 50.1742 133.296 50.3249 133.338 50.5577C134.069 54.6095 137.538 57.6866 141.283 58.1359L141.283 58.1359C144.994 58.5847 148.799 56.6844 151.464 53.6744C154.13 50.6271 155.773 46.6185 156.726 42.4718C156.779 42.2417 156.988 42.103 157.195 42.162Z" fill="#3F4046"/>
<path fill-rule="evenodd" clip-rule="evenodd" d="M185.361 45.0684C185.424 45.2954 185.31 45.5361 185.106 45.6059C182.776 46.4064 181.144 48.9694 180.586 51.7405L180.586 51.7417C180.026 54.4829 180.365 57.3798 180.752 60.2923L180.752 60.2927C182.831 76.0407 187.79 90.9439 193.785 105.442C193.874 105.657 193.79 105.913 193.597 106.012C193.404 106.112 193.175 106.018 193.086 105.802C187.076 91.2691 182.084 76.2813 179.99 60.4181C179.606 57.5247 179.239 54.4724 179.835 51.5511C180.432 48.588 182.203 45.7035 184.88 44.7838C185.083 44.7139 185.299 44.8413 185.361 45.0684Z" fill="#3F4046"/>
<path fill-rule="evenodd" clip-rule="evenodd" d="M116.059 67.4843C116.255 67.3943 116.48 67.4997 116.561 67.7195C116.903 68.6524 117.274 69.5384 117.648 70.4307C117.743 70.6582 117.839 70.886 117.934 71.1151C118.401 72.2381 118.857 73.3844 119.234 74.6259L119.234 74.6273C123.471 88.7724 127.708 102.929 131.945 117.098C132.013 117.324 131.904 117.567 131.702 117.643C131.5 117.718 131.282 117.596 131.215 117.371C126.978 103.202 122.741 89.0456 118.504 74.9009C118.141 73.7055 117.699 72.594 117.235 71.4772C117.142 71.2536 117.048 71.0295 116.954 70.8044C116.579 69.91 116.198 68.9997 115.848 68.0452C115.767 67.8253 115.862 67.5742 116.059 67.4843Z" fill="#3F4046"/>
<path fill-rule="evenodd" clip-rule="evenodd" d="M97.8936 85.8959C98.0427 86.0654 98.0404 86.3377 97.8886 86.5041C90.9553 94.102 84.0329 101.712 77.1211 109.334C76.9697 109.5 76.7258 109.499 76.5763 109.33C76.4268 109.161 76.4283 108.888 76.5797 108.722C83.4921 101.099 90.4151 93.4887 97.3489 85.8902C97.5007 85.7238 97.7446 85.7264 97.8936 85.8959Z" fill="#3F4046"/>
<path fill-rule="evenodd" clip-rule="evenodd" d="M72.5554 100.063C72.717 99.9084 72.9602 99.9295 73.0985 100.11C74.8752 102.428 76.6411 104.747 78.3964 107.065C78.5338 107.246 78.5134 107.518 78.3509 107.671C78.1885 107.824 77.9454 107.802 77.8081 107.62C76.0538 105.303 74.2888 102.986 72.5132 100.669C72.3749 100.489 72.3938 100.217 72.5554 100.063Z" fill="#3F4046"/>
<path fill-rule="evenodd" clip-rule="evenodd" d="M75.1418 96.0261C75.2968 95.8633 75.5405 95.8715 75.6863 96.0445C77.7412 98.4822 79.7853 100.92 81.8187 103.358C81.9637 103.531 81.955 103.804 81.7994 103.965C81.6437 104.127 81.4 104.118 81.255 103.944C79.2225 101.507 77.1793 99.0706 75.1253 96.634C74.9795 96.4611 74.9869 96.1889 75.1418 96.0261Z" fill="#3F4046"/>
<path fill-rule="evenodd" clip-rule="evenodd" d="M77.4901 93.405C77.6296 93.2256 77.8729 93.2064 78.0335 93.3621L84.8386 99.9568C84.9993 100.112 85.0165 100.384 84.877 100.563C84.7376 100.743 84.4943 100.762 84.3336 100.606L77.5286 94.0117C77.3679 93.856 77.3507 93.5844 77.4901 93.405Z" fill="#3F4046"/>
<path fill-rule="evenodd" clip-rule="evenodd" d="M83.9447 85.7318C84.1037 85.5739 84.3471 85.5898 84.4886 85.7672C86.5643 88.3716 88.6507 90.9879 90.7478 93.6161C90.8893 93.7935 90.8753 94.0653 90.7164 94.2233C90.5576 94.3813 90.3141 94.3657 90.1726 94.1883C88.0754 91.5599 85.9889 88.9435 83.9131 86.3391C83.7716 86.1616 83.7858 85.8898 83.9447 85.7318Z" fill="#3F4046"/>
<path fill-rule="evenodd" clip-rule="evenodd" d="M85.8722 83.2218C86.0317 83.0647 86.2751 83.0817 86.4158 83.2599L92.6432 91.1448C92.7839 91.323 92.7686 91.5947 92.609 91.7518C92.4495 91.9089 92.206 91.8919 92.0653 91.7137L85.838 83.8288C85.6973 83.6506 85.7126 83.3789 85.8722 83.2218Z" fill="#3F4046"/>
<path fill-rule="evenodd" clip-rule="evenodd" d="M88.606 80.4554C88.7512 80.2818 88.995 80.2725 89.1504 80.4346L95.9555 87.531C96.111 87.6932 96.1193 87.9653 95.9741 88.1389C95.8289 88.3125 95.5852 88.3218 95.4297 88.1597L88.6246 81.0633C88.4691 80.9011 88.4608 80.629 88.606 80.4554Z" fill="#3F4046"/>
<path fill-rule="evenodd" clip-rule="evenodd" d="M142.104 0.200199C142.218 -0.000532078 142.456 -0.0603086 142.635 0.0666847C144.372 1.29367 145.107 4.03566 144.224 6.1661C144.134 6.38165 143.905 6.47549 143.712 6.3757C143.519 6.27591 143.435 6.02028 143.524 5.80473C144.246 4.0644 143.632 1.78872 142.224 0.793597C142.044 0.666604 141.99 0.400931 142.104 0.200199Z" fill="#FFA24B"/>
<path fill-rule="evenodd" clip-rule="evenodd" d="M156.984 14.6696C157.049 14.8955 156.939 15.1381 156.736 15.2114C155.947 15.497 155.159 15.7946 154.37 16.1041C154.169 16.1828 153.949 16.065 153.879 15.8409C153.808 15.6168 153.914 15.3713 154.114 15.2925C154.909 14.9808 155.704 14.681 156.499 14.3932C156.701 14.3199 156.918 14.4436 156.984 14.6696Z" fill="#FFA24B"/>
<path d="M156.393 21.253C157.131 20.357 157.324 18.9234 156.842 17.8482C156.393 16.7371 155.334 15.877 154.242 15.9486C154.948 14.3717 154.852 12.4004 153.953 10.9668C153.054 9.53319 151.706 8.85222 150.133 9.03142C150.198 7.45444 149.395 5.84163 148.175 5.05314C146.956 4.22881 145.254 4.40801 144.034 5.23234C143.713 3.33279 142.333 1.68413 140.632 1.25404C138.931 0.823958 137.037 1.75581 136.01 3.33279C134.661 1.25404 131.933 0.393875 129.814 1.46909C127.696 2.5443 126.251 5.5549 126.797 8.06373C125.77 7.95621 124.743 8.52966 124.165 9.49735C123.619 10.465 123.587 11.7553 124.101 12.723C124.614 13.7265 125.609 14.3717 126.637 14.3358C125.995 15.1243 125.834 16.307 126.251 17.2389C126.669 18.1707 127.6 18.8159 128.53 18.7084L154.788 30.2131C154.98 29.2813 155.077 28.4928 155.269 27.561C156.553 27.3459 157.677 26.1632 157.901 24.7296C158.158 23.2959 157.548 21.934 156.393 21.253Z" fill="#FFA24B"/>
<path d="M153.761 41.396C152.798 39.4248 152.059 37.5611 151.482 35.4106C153.921 35.3031 156.232 33.296 156.938 30.6797C157.613 28.0275 156.617 24.9452 154.595 23.4041C152.541 21.8629 149.523 22.293 147.598 23.9775C146.988 21.6837 146.281 19.4616 145.672 17.2037C144.612 17.5621 143.425 17.4546 142.429 16.9528C141.434 16.451 140.632 15.4117 140.182 14.2648C139.541 14.9816 138.578 15.34 137.711 15.1966C136.812 15.0174 136.138 14.5156 135.721 13.6196C135.303 14.4081 134.533 14.9457 133.731 15.0891C132.896 15.2325 132.029 14.9457 131.387 14.3364C129.397 15.2325 127.567 17.1678 127.022 19.4975C126.123 23.5116 125.545 27.8125 125.802 31.9699C125.962 34.3354 126.701 36.4858 128.113 38.242C129.525 39.9982 131.484 41.181 133.57 41.5035C134.501 44.3708 135.432 47.1305 136.363 49.9977C137.133 52.399 139.412 53.9402 141.691 54.191C143.938 54.4419 146.217 53.3309 147.886 51.5747C150.647 48.6358 152.059 45.1951 153.761 41.396Z" fill="#FFDBD0"/>
<path fill-rule="evenodd" clip-rule="evenodd" d="M143.09 40.5837C143.19 40.7933 143.119 41.0538 142.932 41.1656C139.951 42.9405 136.313 43.31 133.1 42.1635C132.897 42.0912 132.785 41.8492 132.85 41.6229C132.915 41.3966 133.132 41.2718 133.334 41.3442C136.349 42.4198 139.772 42.0724 142.569 40.4066C142.757 40.2949 142.99 40.3741 143.09 40.5837Z" fill="#3F4046"/>
<path fill-rule="evenodd" clip-rule="evenodd" d="M149.274 35.1489C149.314 34.9157 149.517 34.7634 149.725 34.8088C150.496 34.9762 151.257 35.1436 152.007 35.311C152.215 35.3576 152.35 35.5841 152.309 35.8171C152.267 36.05 152.064 36.201 151.855 36.1544C151.107 35.9873 150.348 35.8202 149.578 35.6531C149.37 35.6078 149.233 35.382 149.274 35.1489Z" fill="#3F4046"/>
<path fill-rule="evenodd" clip-rule="evenodd" d="M153.97 26.9728C154.03 27.2005 153.913 27.4398 153.709 27.5072C152.191 28.0088 150.682 28.5104 149.185 29.012C148.981 29.0803 148.766 28.9511 148.705 28.7236C148.644 28.4961 148.76 28.2564 148.963 28.1881C150.462 27.6862 151.971 27.1842 153.491 26.6823C153.695 26.615 153.909 26.745 153.97 26.9728Z" fill="#3F4046"/>
<path d="M130.36 25.6258C130.36 25.124 130.007 24.7656 129.589 24.7656C129.14 24.7656 128.819 25.124 128.819 25.6258C128.819 26.0917 129.14 26.486 129.589 26.486C130.007 26.486 130.36 26.0917 130.36 25.6258Z" fill="#3F4046"/>
<path d="M142.397 26.8089C142.397 26.343 142.044 25.9487 141.627 25.9487C141.21 25.9487 140.857 26.343 140.857 26.8089C140.857 27.2748 141.21 27.6691 141.627 27.6691C142.044 27.6691 142.397 27.2748 142.397 26.8089Z" fill="#3F4046"/>
<path fill-rule="evenodd" clip-rule="evenodd" d="M134.831 25.1407C135.036 25.2059 135.154 25.444 135.096 25.6724C134.756 27.0007 134.408 28.3291 134.051 29.6574C134.479 29.6697 134.907 29.6759 135.335 29.6759C135.548 29.6759 135.721 29.8684 135.721 30.106C135.721 30.3435 135.548 30.536 135.335 30.536C134.732 30.536 134.128 30.524 133.524 30.4999C133.405 30.4952 133.294 30.4289 133.225 30.3204C133.155 30.2119 133.135 30.0736 133.169 29.9459C133.575 28.4426 133.971 26.9393 134.355 25.4361C134.414 25.2077 134.627 25.0754 134.831 25.1407Z" fill="#3F4046"/>
<path fill-rule="evenodd" clip-rule="evenodd" d="M139.046 31.5401C139.259 31.552 139.422 31.7539 139.412 31.9911C139.37 32.9089 138.728 33.7089 137.926 33.8941C137.136 34.1196 136.263 33.6589 135.865 32.8595C135.762 32.6518 135.829 32.39 136.015 32.2747C136.201 32.1593 136.436 32.2341 136.539 32.4417C136.781 32.9288 137.315 33.1843 137.741 33.059C137.749 33.0568 137.756 33.0549 137.764 33.0532C138.24 32.9468 138.619 32.4597 138.642 31.9482C138.653 31.7109 138.834 31.5282 139.046 31.5401Z" fill="#3F4046"/>
<path fill-rule="evenodd" clip-rule="evenodd" d="M129.801 18.8159C128.996 18.786 128.177 19.3655 127.855 20.1735C127.769 20.3906 127.541 20.4883 127.347 20.3919C127.152 20.2954 127.065 20.0412 127.151 19.8242C127.6 18.6969 128.707 17.9145 129.827 17.9562L129.828 17.9562C130.917 17.9981 131.986 18.8643 132.36 20.0334C132.431 20.2571 132.327 20.5032 132.127 20.5831C131.926 20.663 131.706 20.5464 131.634 20.3227C131.366 19.4848 130.574 18.8457 129.801 18.8159Z" fill="#3F4046"/>
<path fill-rule="evenodd" clip-rule="evenodd" d="M141.586 20.0981C140.587 19.8814 139.498 20.4125 138.973 21.4008C138.864 21.6051 138.628 21.6723 138.445 21.551C138.262 21.4298 138.202 21.1659 138.31 20.9617C139.005 19.6562 140.42 18.9687 141.733 19.2538C143.049 19.5395 144.132 20.7936 144.35 22.2951C144.384 22.5296 144.242 22.7505 144.032 22.7885C143.822 22.8265 143.624 22.6673 143.59 22.4328C143.423 21.2821 142.58 20.3141 141.586 20.0981Z" fill="#3F4046"/>
<path fill-rule="evenodd" clip-rule="evenodd" d="M135.686 13.0154C135.896 13.0534 136.039 13.2743 136.005 13.5088C135.928 14.0363 136.08 14.5998 136.391 15.0499C136.702 15.5002 137.146 15.8003 137.614 15.8426C137.826 15.8618 137.984 16.0693 137.966 16.3061C137.949 16.5428 137.763 16.7192 137.551 16.7C136.831 16.6348 136.2 16.1823 135.781 15.5752C135.361 14.968 135.128 14.1696 135.244 13.3711C135.278 13.1366 135.476 12.9774 135.686 13.0154Z" fill="#FFA24B"/>
</svg>
