<svg width="28" height="28" viewBox="0 0 28 28" fill="none" xmlns="http://www.w3.org/2000/svg">
<path d="M23.3333 20.4983C23.9114 19.5512 24.1591 18.4391 24.0377 17.3362C23.9163 16.2333 23.4327 15.2017 22.6625 14.4029C21.8923 13.6042 20.8791 13.0833 19.7813 12.9218C18.6835 12.7603 17.5632 12.9673 16.5956 13.5104C15.628 14.0535 14.8678 14.9021 14.4339 15.9233C14 16.9445 13.9169 18.0808 14.1977 19.1543C14.4784 20.2278 15.1072 21.1779 15.9855 21.856C16.8638 22.534 17.9421 22.9018 19.0517 22.9017C19.9732 22.8974 20.8763 22.6434 21.665 22.1667L23.6717 24.185C23.7801 24.2944 23.9092 24.3811 24.0513 24.4404C24.1935 24.4996 24.346 24.5301 24.5 24.5301C24.654 24.5301 24.8065 24.4996 24.9487 24.4404C25.0909 24.3811 25.2199 24.2944 25.3283 24.185C25.4377 24.0765 25.5245 23.9475 25.5837 23.8053C25.6429 23.6632 25.6734 23.5107 25.6734 23.3567C25.6734 23.2027 25.6429 23.0502 25.5837 22.908C25.5245 22.7658 25.4377 22.6368 25.3283 22.5283L23.3333 20.4983ZM21 19.8333C20.4858 20.3233 19.8028 20.5967 19.0925 20.5967C18.3822 20.5967 17.6992 20.3233 17.185 19.8333C16.6813 19.3263 16.3986 18.6406 16.3986 17.9258C16.3986 17.2111 16.6813 16.5254 17.185 16.0183C17.4353 15.7675 17.7327 15.5685 18.06 15.4328C18.3873 15.297 18.7382 15.2271 19.0925 15.2271C19.4469 15.2271 19.7977 15.297 20.125 15.4328C20.4524 15.5685 20.7497 15.7675 21 16.0183C21.5037 16.5254 21.7864 17.2111 21.7864 17.9258C21.7864 18.6406 21.5037 19.3263 21 19.8333ZM22.1667 3.5H5.83334C4.90509 3.5 4.01485 3.86875 3.35847 4.52513C2.70209 5.1815 2.33334 6.07174 2.33334 7V17.5C2.33334 18.4283 2.70209 19.3185 3.35847 19.9749C4.01485 20.6313 4.90509 21 5.83334 21H10.5C10.8094 21 11.1062 20.8771 11.325 20.6583C11.5438 20.4395 11.6667 20.1428 11.6667 19.8333C11.6667 19.5239 11.5438 19.2272 11.325 19.0084C11.1062 18.7896 10.8094 18.6667 10.5 18.6667H5.83334C5.52392 18.6667 5.22718 18.5438 5.00839 18.325C4.78959 18.1062 4.66668 17.8094 4.66668 17.5V10.5H23.3333V11.6667C23.3333 11.9761 23.4563 12.2728 23.6751 12.4916C23.8938 12.7104 24.1906 12.8333 24.5 12.8333C24.8094 12.8333 25.1062 12.7104 25.325 12.4916C25.5438 12.2728 25.6667 11.9761 25.6667 11.6667V7C25.6667 6.07174 25.2979 5.1815 24.6415 4.52513C23.9852 3.86875 23.0949 3.5 22.1667 3.5ZM23.3333 8.16667H4.66668V7C4.66668 6.69058 4.78959 6.39384 5.00839 6.17504C5.22718 5.95625 5.52392 5.83333 5.83334 5.83333H22.1667C22.4761 5.83333 22.7728 5.95625 22.9916 6.17504C23.2104 6.39384 23.3333 6.69058 23.3333 7V8.16667ZM11.6667 12.8333H8.16668C7.85726 12.8333 7.56051 12.9563 7.34172 13.175C7.12293 13.3938 7.00001 13.6906 7.00001 14C7.00001 14.3094 7.12293 14.6062 7.34172 14.825C7.56051 15.0438 7.85726 15.1667 8.16668 15.1667H11.6667C11.9761 15.1667 12.2728 15.0438 12.4916 14.825C12.7104 14.6062 12.8333 14.3094 12.8333 14C12.8333 13.6906 12.7104 13.3938 12.4916 13.175C12.2728 12.9563 11.9761 12.8333 11.6667 12.8333Z" fill="white"/>
</svg>
