<svg width="26" height="27" viewBox="0 0 26 27" fill="none" xmlns="http://www.w3.org/2000/svg">
<path d="M4.33333 4.83317C4.33333 4.25853 4.5616 3.70743 4.96793 3.30111C5.37426 2.89478 5.92536 2.6665 6.49999 2.6665H15.1667C15.454 2.66657 15.7295 2.78074 15.9326 2.98392L21.3492 8.40059C21.5524 8.6037 21.6666 8.87921 21.6667 9.1665V22.1665C21.6667 22.7411 21.4384 23.2922 21.0321 23.6986C20.6257 24.1049 20.0746 24.3332 19.5 24.3332H6.49999C5.92536 24.3332 5.37426 24.1049 4.96793 23.6986C4.5616 23.2922 4.33333 22.7411 4.33333 22.1665V4.83317ZM19.0515 9.1665L15.1667 5.28167V9.1665H19.0515ZM13 4.83317H6.49999V22.1665H19.5V11.3332H14.0833C13.796 11.3332 13.5205 11.219 13.3173 11.0159C13.1141 10.8127 13 10.5372 13 10.2498V4.83317ZM17.0159 13.8173C17.219 14.0204 17.3331 14.2959 17.3331 14.5832C17.3331 14.8704 17.219 15.1459 17.0159 15.3491L12.6826 19.6824C12.4794 19.8855 12.2039 19.9996 11.9167 19.9996C11.6294 19.9996 11.3539 19.8855 11.1507 19.6824L8.98408 17.5158C8.88061 17.4158 8.79808 17.2963 8.7413 17.1641C8.68453 17.0319 8.65464 16.8898 8.65339 16.7459C8.65214 16.6021 8.67955 16.4594 8.73402 16.3263C8.78849 16.1932 8.86893 16.0722 8.97065 15.9705C9.07237 15.8688 9.19332 15.7883 9.32646 15.7339C9.4596 15.6794 9.60225 15.652 9.7461 15.6532C9.88994 15.6545 10.0321 15.6844 10.1643 15.7411C10.2964 15.7979 10.416 15.8805 10.5159 15.9839L11.9167 17.3847L15.4841 13.8173C15.6872 13.6142 15.9627 13.5001 16.25 13.5001C16.5373 13.5001 16.8128 13.6142 17.0159 13.8173Z" fill="white"/>
</svg>
