<svg width="28" height="28" viewBox="0 0 28 28" fill="none" xmlns="http://www.w3.org/2000/svg">
<path d="M24.6944 4.0835H3.30555C2.1247 4.0835 1.16666 5.03532 1.16666 6.2085V21.7918C1.16666 22.965 2.1247 23.9168 3.30555 23.9168H24.6944C25.8753 23.9168 26.8333 22.965 26.8333 21.7918V6.2085C26.8333 5.03532 25.8753 4.0835 24.6944 4.0835ZM24.6944 21.7918H3.30555V6.2085H24.6944V21.7918ZM10.4352 14.0002C12.0081 14.0002 13.287 12.7296 13.287 11.1668C13.287 9.60407 12.0081 8.3335 10.4352 8.3335C8.8622 8.3335 7.58332 9.60407 7.58332 11.1668C7.58332 12.7296 8.8622 14.0002 10.4352 14.0002ZM6.44258 19.6668H14.4278C14.9803 19.6668 15.4259 19.2861 15.4259 18.8168V17.9668C15.4259 16.559 14.0847 15.4168 12.4315 15.4168C11.9502 15.4168 11.5982 15.771 10.4352 15.771C9.23651 15.771 8.94686 15.4168 8.43888 15.4168C6.7857 15.4168 5.44443 16.559 5.44443 17.9668V18.8168C5.44443 19.2861 5.89004 19.6668 6.44258 19.6668ZM17.2083 16.8335H22.1991C22.3951 16.8335 22.5555 16.6741 22.5555 16.4793V15.771C22.5555 15.5762 22.3951 15.4168 22.1991 15.4168H17.2083C17.0123 15.4168 16.8518 15.5762 16.8518 15.771V16.4793C16.8518 16.6741 17.0123 16.8335 17.2083 16.8335ZM17.2083 14.0002H22.1991C22.3951 14.0002 22.5555 13.8408 22.5555 13.646V12.9377C22.5555 12.7429 22.3951 12.5835 22.1991 12.5835H17.2083C17.0123 12.5835 16.8518 12.7429 16.8518 12.9377V13.646C16.8518 13.8408 17.0123 14.0002 17.2083 14.0002ZM17.2083 11.1668H22.1991C22.3951 11.1668 22.5555 11.0075 22.5555 10.8127V10.1043C22.5555 9.90954 22.3951 9.75016 22.1991 9.75016H17.2083C17.0123 9.75016 16.8518 9.90954 16.8518 10.1043V10.8127C16.8518 11.0075 17.0123 11.1668 17.2083 11.1668Z" fill="white"/>
</svg>
