<svg width="28" height="28" viewBox="0 0 28 28" fill="none" xmlns="http://www.w3.org/2000/svg">
<path d="M26.0312 12.9609H22.6898C22.2168 8.95781 19.0422 5.7832 15.0391 5.31016V1.96875C15.0391 1.84844 14.9406 1.75 14.8203 1.75H13.1797C13.0594 1.75 12.9609 1.84844 12.9609 1.96875V5.31016C8.95781 5.7832 5.7832 8.95781 5.31016 12.9609H1.96875C1.84844 12.9609 1.75 13.0594 1.75 13.1797V14.8203C1.75 14.9406 1.84844 15.0391 1.96875 15.0391H5.31016C5.7832 19.0422 8.95781 22.2168 12.9609 22.6898V26.0312C12.9609 26.1516 13.0594 26.25 13.1797 26.25H14.8203C14.9406 26.25 15.0391 26.1516 15.0391 26.0312V22.6898C19.0422 22.2168 22.2168 19.0422 22.6898 15.0391H26.0312C26.1516 15.0391 26.25 14.9406 26.25 14.8203V13.1797C26.25 13.0594 26.1516 12.9609 26.0312 12.9609ZM14 20.6719C10.3141 20.6719 7.32812 17.6859 7.32812 14C7.32812 10.3141 10.3141 7.32812 14 7.32812C17.6859 7.32812 20.6719 10.3141 20.6719 14C20.6719 17.6859 17.6859 20.6719 14 20.6719Z" fill="#6E32ED"/>
<path d="M14 10.7188C13.1223 10.7188 12.302 11.0578 11.6813 11.6813C11.0605 12.302 10.7188 13.1223 10.7188 14C10.7188 14.8777 11.0605 15.698 11.6813 16.3187C12.302 16.9367 13.125 17.2812 14 17.2812C14.875 17.2812 15.698 16.9395 16.3187 16.3187C16.9367 15.698 17.2812 14.875 17.2812 14C17.2812 13.125 16.9395 12.302 16.3187 11.6813C15.698 11.0578 14.8777 10.7188 14 10.7188Z" fill="#6E32ED"/>
</svg>
