<svg width="48" height="56" viewBox="0 0 48 56" fill="none" xmlns="http://www.w3.org/2000/svg">
<path d="M27.0746 51.2821C27.1009 53.4357 25.4072 55.2188 23.2396 55.2519C21.0984 55.299 19.3145 53.5806 19.2881 51.427C19.2417 49.2796 20.9355 47.4965 23.0968 47.4432C25.2443 47.4164 27.022 49.1146 27.0746 51.2821Z" fill="#3F4046"/>
<path d="M41.264 20.5063C41.0507 10.1669 32.5113 1.9529 22.1869 2.16417C11.8625 2.37544 3.63093 10.9529 3.85048 21.3123C3.95031 26.6385 6.27073 31.3845 9.89921 34.7319L9.95071 37.4716C9.97808 38.9181 11.1629 40.0489 12.6064 40.019L33.229 39.5826C34.6725 39.5527 35.803 38.3636 35.7757 36.917L35.7241 34.1773C39.2269 30.6854 41.3701 25.8525 41.264 20.5063Z" fill="#FCC979"/>
<path fill-rule="evenodd" clip-rule="evenodd" d="M29.7924 16.822L30.0139 28.128L25.595 28.224L25.8182 39.7499L24.6601 39.7795L24.4369 28.2536L22.6866 28.291L20.9564 28.3221L21.1796 39.8481L20.0216 39.8776L19.7983 28.3517L15.3793 28.4477L15.1578 17.1417L20.7349 17.0161L20.9296 27.1621L22.6799 27.1247L24.41 27.0935L24.2153 16.9476L29.7924 16.822ZM19.5974 18.1856L16.3365 18.252L16.5106 27.2581L19.7715 27.1917L19.5974 18.1856ZM28.675 17.9852L25.394 18.0579L25.5619 27.0439L28.843 26.9712L28.675 17.9852Z" fill="#6E32ED"/>
<path d="M35.9941 42.3921L9.97956 42.942C9.19471 42.9656 8.53756 42.3326 8.51534 41.5464C8.5132 40.7539 9.12611 40.1007 9.91716 40.0972L35.9317 39.5473C36.7166 39.5237 37.3737 40.1567 37.3897 40.9229C37.3918 41.7153 36.779 42.3685 35.9941 42.3921Z" fill="#3F4046"/>
<path d="M10.7928 42.9365L10.8744 46.7017C10.9197 49.4203 13.165 51.5653 15.852 51.5014L30.4571 51.193C33.1504 51.1492 35.2949 48.8959 35.2496 46.1772L35.168 42.412L10.7928 42.9365Z" fill="#6E32ED"/>
<path d="M11.8782 51.742C11.3266 51.7372 10.8365 51.3607 10.7094 50.8053C10.5838 50.1833 10.9897 49.5724 11.6107 49.4455L26.2819 46.4281L10.1835 45.8129C9.55924 45.7866 9.06596 45.2568 9.08711 44.6113C9.11445 43.9859 9.63784 43.4706 10.2883 43.5108L35.917 44.4912C36.4949 44.5099 36.9634 44.9592 37.0102 45.5395C37.0632 46.14 36.6726 46.658 36.0918 46.7724L12.0651 51.706C11.9982 51.7268 11.9359 51.7388 11.8782 51.742Z" fill="#3F4046"/>
<g style="mix-blend-mode:soft-light" opacity="0.5">
<path d="M18.3437 16.8402C15.5571 20.7264 11.545 22.6349 9.39253 21.0777C7.2262 19.5467 7.73747 15.1334 10.4978 11.2332C13.2844 7.34699 17.2966 5.43846 19.4428 6.97564C21.6153 8.52669 21.104 12.9401 18.3437 16.8402Z" fill="white"/>
</g>
</svg>
