<svg width="25" height="24" viewBox="0 0 25 24" fill="none" xmlns="http://www.w3.org/2000/svg">
<path fill-rule="evenodd" clip-rule="evenodd" d="M12.5 2C8.64027 2 5.5 4.84121 5.5 8.33335C5.5 9.38169 5.78969 10.4211 6.34041 11.3431L12.1172 20.7959C12.1941 20.9219 12.3407 21 12.5 21C12.6593 21 12.8059 20.9219 12.8828 20.7959L18.6617 11.3399C19.2103 10.4211 19.5 9.38165 19.5 8.33331C19.5 4.84121 16.3597 2 12.5 2ZM12.5 12.45C10.2944 12.45 8.5 10.7453 8.5 8.65001C8.5 6.55472 10.2944 4.85001 12.5 4.85001C14.7056 4.85001 16.5 6.55472 16.5 8.65001C16.5 10.7453 14.7056 12.45 12.5 12.45Z" fill="white"/>
</svg>
