<svg width="257" height="177" viewBox="0 0 257 177" fill="none" xmlns="http://www.w3.org/2000/svg">
<path d="M253.402 176.234H201.359C200.852 176.234 200.427 175.808 200.427 175.301V169.663C200.427 169.156 200.852 168.744 201.359 168.744H253.402C253.91 168.744 254.321 169.156 254.321 169.663V175.301C254.321 175.808 253.91 176.234 253.402 176.234Z" fill="#FEDB69"/>
<path d="M226.05 168.744H224.679V176.234H226.05V168.744Z" fill="#FFFA7B"/>
<path d="M221.688 168.744H220.33V176.234H221.688V168.744Z" fill="#FFFA7B"/>
<path d="M217.34 168.744H215.968V176.234H217.34V168.744Z" fill="#FFFA7B"/>
<path d="M204.254 168.744H202.882V176.234H204.254V168.744Z" fill="#FFFA7B"/>
<path d="M208.616 168.744H207.244V176.234H208.616V168.744Z" fill="#FFFA7B"/>
<path d="M212.978 168.744H211.606V176.234H212.978V168.744Z" fill="#FFFA7B"/>
<path d="M230.412 168.744H229.041V176.234H230.412V168.744Z" fill="#FFFA7B"/>
<path d="M243.498 168.744H242.127V176.234H243.498V168.744Z" fill="#FFFA7B"/>
<path d="M252.223 168.744H250.851V176.234H252.223V168.744Z" fill="#FFFA7B"/>
<path d="M247.861 168.744H246.489V176.234H247.861V168.744Z" fill="#FFFA7B"/>
<path d="M234.774 168.744H233.403V176.234H234.774V168.744Z" fill="#FFFA7B"/>
<path d="M239.136 168.744H237.765V176.234H239.136V168.744Z" fill="#FFFA7B"/>
<path d="M254.143 173.97V175.301C254.143 175.712 253.814 176.041 253.402 176.041H201.359C200.948 176.041 200.619 175.712 200.619 175.301V169.663C200.619 169.251 200.948 168.922 201.359 168.922H232.758C232.868 168.922 232.95 168.84 232.95 168.744C232.95 168.634 232.868 168.552 232.758 168.552H201.359C200.742 168.552 200.248 169.046 200.248 169.663V175.301C200.248 175.918 200.742 176.412 201.359 176.412H253.402C254.02 176.412 254.513 175.918 254.513 175.301V173.97C254.513 173.86 254.431 173.778 254.321 173.778C254.225 173.778 254.143 173.86 254.143 173.97Z" fill="#6E32ED"/>
<path d="M195.68 168.758H247.71C248.231 168.758 248.642 168.332 248.642 167.825V162.187C248.642 161.68 248.231 161.268 247.71 161.268H195.68C195.159 161.268 194.748 161.68 194.748 162.187V167.825C194.748 168.332 195.159 168.758 195.68 168.758Z" fill="#FEDB69"/>
<path d="M223.019 161.268H224.39V168.758H223.019V161.268Z" fill="#FFFA7B"/>
<path d="M227.381 161.268H228.753V168.758H227.381V161.268Z" fill="#FFFA7B"/>
<path d="M231.743 161.268H233.115V168.758H231.743V161.268Z" fill="#FFFA7B"/>
<path d="M244.815 161.268H246.187V168.758H244.815V161.268Z" fill="#FFFA7B"/>
<path d="M240.467 161.268H241.825V168.758H240.467V161.268Z" fill="#FFFA7B"/>
<path d="M236.105 161.268H237.477V168.758H236.105V161.268Z" fill="#FFFA7B"/>
<path d="M218.657 161.268H220.028V168.758H218.657V161.268Z" fill="#FFFA7B"/>
<path d="M205.584 161.268H206.942V168.758H205.584V161.268Z" fill="#FFFA7B"/>
<path d="M196.86 161.268H198.232V168.758H196.86V161.268Z" fill="#FFFA7B"/>
<path d="M201.222 161.268H202.594V168.758H201.222V161.268Z" fill="#FFFA7B"/>
<path d="M214.295 161.268H215.666V168.758H214.295V161.268Z" fill="#FFFA7B"/>
<path d="M209.933 161.268H211.304V168.758H209.933V161.268Z" fill="#FFFA7B"/>
<path d="M194.94 166.494V167.825C194.94 168.237 195.269 168.566 195.68 168.566H247.71C248.121 168.566 248.45 168.237 248.45 167.825V162.187C248.45 161.776 248.121 161.447 247.71 161.447H216.311C216.215 161.447 216.133 161.364 216.133 161.268C216.133 161.158 216.215 161.076 216.311 161.076H247.71C248.327 161.076 248.834 161.57 248.834 162.187V167.825C248.834 168.442 248.327 168.936 247.71 168.936H195.68C195.063 168.936 194.556 168.442 194.556 167.825V166.494C194.556 166.385 194.638 166.302 194.748 166.302C194.844 166.302 194.94 166.385 194.94 166.494Z" fill="#6E32ED"/>
<path d="M255.103 161.268H203.074C202.553 161.268 202.141 160.857 202.141 160.349V154.712C202.141 154.204 202.553 153.779 203.074 153.779H255.103C255.624 153.779 256.036 154.204 256.036 154.712V160.349C256.036 160.857 255.624 161.268 255.103 161.268Z" fill="#FEDB69"/>
<path d="M227.765 153.779H226.393V161.268H227.765V153.779Z" fill="#FFFA7B"/>
<path d="M223.403 153.779H222.031V161.268H223.403V153.779Z" fill="#FFFA7B"/>
<path d="M219.041 153.779H217.669V161.268H219.041V153.779Z" fill="#FFFA7B"/>
<path d="M205.968 153.779H204.597V161.268H205.968V153.779Z" fill="#FFFA7B"/>
<path d="M210.317 153.779H208.959V161.268H210.317V153.779Z" fill="#FFFA7B"/>
<path d="M214.679 153.779H213.307V161.268H214.679V153.779Z" fill="#FFFA7B"/>
<path d="M232.127 153.779H230.755V161.268H232.127V153.779Z" fill="#FFFA7B"/>
<path d="M245.199 153.779H243.841V161.268H245.199V153.779Z" fill="#FFFA7B"/>
<path d="M253.923 153.779H252.552V161.268H253.923V153.779Z" fill="#FFFA7B"/>
<path d="M249.561 153.779H248.19V161.268H249.561V153.779Z" fill="#FFFA7B"/>
<path d="M236.489 153.779H235.117V161.268H236.489V153.779Z" fill="#FFFA7B"/>
<path d="M240.851 153.779H239.479V161.268H240.851V153.779Z" fill="#FFFA7B"/>
<path d="M255.844 159.005V160.349C255.844 160.761 255.515 161.09 255.103 161.09H203.074C202.663 161.09 202.333 160.761 202.333 160.349V154.712C202.333 154.3 202.663 153.971 203.074 153.971H234.473C234.569 153.971 234.651 153.889 234.651 153.779C234.651 153.683 234.569 153.601 234.473 153.601H203.074C202.457 153.601 201.949 154.094 201.949 154.712V160.349C201.949 160.967 202.457 161.461 203.074 161.461H255.103C255.72 161.461 256.228 160.967 256.228 160.349V159.005C256.228 158.909 256.146 158.827 256.036 158.827C255.94 158.827 255.844 158.909 255.844 159.005Z" fill="#6E32ED"/>
<path d="M192.635 153.792H244.678C245.186 153.792 245.611 153.381 245.611 152.873V147.236C245.611 146.728 245.186 146.303 244.678 146.303H192.635C192.128 146.303 191.716 146.728 191.716 147.236V152.873C191.716 153.381 192.128 153.792 192.635 153.792Z" fill="#FEDB69"/>
<path d="M219.987 146.303H221.359V153.792H219.987V146.303Z" fill="#FFFA7B"/>
<path d="M224.349 146.303H225.721V153.792H224.349V146.303Z" fill="#FFFA7B"/>
<path d="M228.711 146.303H230.069V153.792H228.711V146.303Z" fill="#FFFA7B"/>
<path d="M241.784 146.303H243.156V153.792H241.784V146.303Z" fill="#FFFA7B"/>
<path d="M237.422 146.303H238.793V153.792H237.422V146.303Z" fill="#FFFA7B"/>
<path d="M233.06 146.303H234.431V153.792H233.06V146.303Z" fill="#FFFA7B"/>
<path d="M215.625 146.303H216.997V153.792H215.625V146.303Z" fill="#FFFA7B"/>
<path d="M202.539 146.303H203.911V153.792H202.539V146.303Z" fill="#FFFA7B"/>
<path d="M193.829 146.303H195.2V153.792H193.829V146.303Z" fill="#FFFA7B"/>
<path d="M198.177 146.303H199.549V153.792H198.177V146.303Z" fill="#FFFA7B"/>
<path d="M211.263 146.303H212.635V153.792H211.263V146.303Z" fill="#FFFA7B"/>
<path d="M206.901 146.303H208.273V153.792H206.901V146.303Z" fill="#FFFA7B"/>
<path d="M191.895 151.529V152.873C191.895 153.285 192.237 153.614 192.635 153.614H244.678C245.09 153.614 245.419 153.285 245.419 152.873V147.236C245.419 146.824 245.09 146.495 244.678 146.495H213.28C213.17 146.495 213.088 146.413 213.088 146.303C213.088 146.207 213.17 146.125 213.28 146.125H244.678C245.295 146.125 245.789 146.618 245.789 147.236V152.873C245.789 153.491 245.295 153.984 244.678 153.984H192.635C192.018 153.984 191.524 153.491 191.524 152.873V151.529C191.524 151.433 191.606 151.351 191.716 151.351C191.812 151.351 191.895 151.433 191.895 151.529Z" fill="#6E32ED"/>
<path d="M249.726 146.303H197.683C197.176 146.303 196.75 145.892 196.75 145.37V139.746C196.75 139.225 197.176 138.813 197.683 138.813H249.726C250.234 138.813 250.659 139.225 250.659 139.746V145.37C250.659 145.892 250.234 146.303 249.726 146.303Z" fill="#FEDB69"/>
<path d="M222.374 138.813H221.002V146.303H222.374V138.813Z" fill="#FFFA7B"/>
<path d="M218.026 138.813H216.654V146.303H218.026V138.813Z" fill="#FFFA7B"/>
<path d="M213.664 138.813H212.292V146.303H213.664V138.813Z" fill="#FFFA7B"/>
<path d="M200.577 138.813H199.206V146.303H200.577V138.813Z" fill="#FFFA7B"/>
<path d="M204.94 138.813H203.568V146.303H204.94V138.813Z" fill="#FFFA7B"/>
<path d="M209.302 138.813H207.93V146.303H209.302V138.813Z" fill="#FFFA7B"/>
<path d="M226.736 138.813H225.364V146.303H226.736V138.813Z" fill="#FFFA7B"/>
<path d="M239.822 138.813H238.451V146.303H239.822V138.813Z" fill="#FFFA7B"/>
<path d="M248.546 138.813H247.175V146.303H248.546V138.813Z" fill="#FFFA7B"/>
<path d="M244.184 138.813H242.813V146.303H244.184V138.813Z" fill="#FFFA7B"/>
<path d="M231.098 138.813H229.726V146.303H231.098V138.813Z" fill="#FFFA7B"/>
<path d="M235.46 138.813H234.088V146.303H235.46V138.813Z" fill="#FFFA7B"/>
<path d="M250.467 144.039V145.37C250.467 145.781 250.138 146.124 249.726 146.124H197.683C197.272 146.124 196.942 145.781 196.942 145.37V139.746C196.942 139.334 197.272 139.005 197.683 139.005H229.082C229.191 139.005 229.274 138.923 229.274 138.813C229.274 138.703 229.191 138.621 229.082 138.621H197.683C197.066 138.621 196.572 139.129 196.572 139.746V145.37C196.572 145.987 197.066 146.495 197.683 146.495H249.726C250.343 146.495 250.837 145.987 250.837 145.37V144.039C250.837 143.943 250.755 143.861 250.659 143.861C250.549 143.861 250.467 143.943 250.467 144.039Z" fill="#6E32ED"/>
<path d="M201.812 138.827H253.855C254.362 138.827 254.774 138.415 254.774 137.894V132.27C254.774 131.749 254.362 131.337 253.855 131.337H201.812C201.305 131.337 200.879 131.749 200.879 132.27V137.894C200.879 138.415 201.305 138.827 201.812 138.827Z" fill="#FEDB69"/>
<path d="M229.15 131.337H230.522V138.827H229.15V131.337Z" fill="#FFFA7B"/>
<path d="M233.512 131.337H234.884V138.827H233.512V131.337Z" fill="#FFFA7B"/>
<path d="M237.874 131.337H239.246V138.827H237.874V131.337Z" fill="#FFFA7B"/>
<path d="M250.961 131.337H252.332V138.827H250.961V131.337Z" fill="#FFFA7B"/>
<path d="M246.599 131.337H247.97V138.827H246.599V131.337Z" fill="#FFFA7B"/>
<path d="M242.237 131.337H243.608V138.827H242.237V131.337Z" fill="#FFFA7B"/>
<path d="M224.802 131.337H226.16V138.827H224.802V131.337Z" fill="#FFFA7B"/>
<path d="M211.716 131.337H213.088V138.827H211.716V131.337Z" fill="#FFFA7B"/>
<path d="M202.992 131.337H204.363V138.827H202.992V131.337Z" fill="#FFFA7B"/>
<path d="M207.354 131.337H208.726V138.827H207.354V131.337Z" fill="#FFFA7B"/>
<path d="M220.44 131.337H221.812V138.827H220.44V131.337Z" fill="#FFFA7B"/>
<path d="M216.078 131.337H217.45V138.827H216.078V131.337Z" fill="#FFFA7B"/>
<path d="M201.071 136.563V137.894C201.071 138.305 201.401 138.648 201.812 138.648H253.855C254.253 138.648 254.596 138.305 254.596 137.894V132.27C254.596 131.858 254.253 131.529 253.855 131.529H222.443C222.347 131.529 222.264 131.447 222.264 131.337C222.264 131.241 222.347 131.145 222.443 131.145H253.855C254.472 131.145 254.966 131.653 254.966 132.27V137.894C254.966 138.511 254.472 139.019 253.855 139.019H201.812C201.195 139.019 200.701 138.511 200.701 137.894V136.563C200.701 136.467 200.783 136.385 200.879 136.385C200.989 136.385 201.071 136.467 201.071 136.563Z" fill="#6E32ED"/>
<path d="M251.043 131.351H199.014C198.493 131.351 198.081 130.94 198.081 130.419V124.795C198.081 124.273 198.493 123.862 199.014 123.862H251.043C251.564 123.862 251.976 124.273 251.976 124.795V130.419C251.976 130.94 251.564 131.351 251.043 131.351Z" fill="#FEDB69"/>
<path d="M223.705 123.862H222.333V131.351H223.705V123.862Z" fill="#FFFA7B"/>
<path d="M219.343 123.862H217.971V131.351H219.343V123.862Z" fill="#FFFA7B"/>
<path d="M214.981 123.862H213.609V131.351H214.981V123.862Z" fill="#FFFA7B"/>
<path d="M201.908 123.862H200.536V131.351H201.908V123.862Z" fill="#FFFA7B"/>
<path d="M206.27 123.862H204.898V131.351H206.27V123.862Z" fill="#FFFA7B"/>
<path d="M210.618 123.862H209.26V131.351H210.618V123.862Z" fill="#FFFA7B"/>
<path d="M228.067 123.862H226.695V131.351H228.067V123.862Z" fill="#FFFA7B"/>
<path d="M241.139 123.862H239.781V131.351H241.139V123.862Z" fill="#FFFA7B"/>
<path d="M249.863 123.862H248.492V131.351H249.863V123.862Z" fill="#FFFA7B"/>
<path d="M245.501 123.862H244.129V131.351H245.501V123.862Z" fill="#FFFA7B"/>
<path d="M232.429 123.862H231.057V131.351H232.429V123.862Z" fill="#FFFA7B"/>
<path d="M236.791 123.862H235.419V131.351H236.791V123.862Z" fill="#FFFA7B"/>
<path d="M251.797 129.088V130.418C251.797 130.83 251.454 131.159 251.043 131.159H199.014C198.602 131.159 198.273 130.83 198.273 130.418V124.794C198.273 124.383 198.602 124.04 199.014 124.04H230.412C230.508 124.04 230.604 123.957 230.604 123.861C230.604 123.752 230.508 123.669 230.412 123.669H199.014C198.397 123.669 197.889 124.177 197.889 124.794V130.418C197.889 131.036 198.397 131.543 199.014 131.543H251.043C251.66 131.543 252.168 131.036 252.168 130.418V129.088C252.168 128.978 252.085 128.896 251.976 128.896C251.88 128.896 251.797 128.978 251.797 129.088Z" fill="#6E32ED"/>
<path d="M228.355 87.5244L225.159 88.9098L221.62 90.5833C221.62 90.5833 216.105 91.5435 216.023 91.5298C216.009 91.5298 216.489 92.3529 216.489 92.3529C209.645 93.1896 188.109 94.0812 184.57 94.4653C182.443 94.7122 180.386 97.3596 179.096 99.4309L180.852 100.611C180.852 100.611 199.658 99.7876 199.617 100.185C199.617 100.309 199.082 102.174 198.259 104.616C209.878 105.398 226.146 105.316 229.178 100.528C231.647 96.6052 229.233 90.9674 228.355 87.5244Z" fill="#FE9F73"/>
<path d="M155.27 171.968L169.563 172.173L169.769 158.799L155.53 157.043L155.27 171.968Z" fill="#FE9F73"/>
<path d="M140.579 174.382H169.769V168.552C169.769 168.552 167.643 165.768 164.405 167.194C164.405 167.194 159.632 170.623 155.311 166.522L144.502 171.117C144.502 171.117 140.579 172.393 140.579 174.382Z" fill="#3F4046"/>
<path d="M169.769 176.412H139.66C139.468 176.412 139.317 176.262 139.317 176.056V174.739C139.317 174.533 139.468 174.382 139.66 174.382H169.769V176.412Z" fill="#EAE7D8"/>
<path d="M152.115 167.88C153.102 169.389 155.064 172.434 156.312 174.382H158.301C157.19 172.654 154.844 169.019 153.679 167.222L152.115 167.88Z" fill="#EAE7D8"/>
<path d="M153.116 174.382H155.105C154.2 172.969 152.43 170.226 151.168 168.278L149.618 168.95C150.675 170.582 152.129 172.846 153.116 174.382Z" fill="#EAE7D8"/>
<path d="M199.727 124.314C199.727 124.314 212.031 124.52 220.659 124.218C223.43 124.122 225.886 124.328 227.353 123.998C233.348 122.668 234.829 103.93 228.012 92.449C221.194 80.9678 197.354 116.221 197.354 116.221L199.727 124.314Z" fill="#EAE7D8"/>
<path d="M177.45 171.968L191.757 172.173L191.963 158.799L177.711 157.043L177.45 171.968Z" fill="#FE9F73"/>
<path d="M162.773 174.382H191.963V168.552C191.963 168.552 189.837 165.768 186.6 167.194C186.6 167.194 181.812 170.623 177.505 166.522L166.696 171.117C166.696 171.117 162.773 172.393 162.773 174.382Z" fill="#3F4046"/>
<path d="M191.963 176.412H161.854C161.662 176.412 161.497 176.262 161.497 176.056V174.739C161.497 174.533 161.662 174.382 161.854 174.382H191.963V176.412Z" fill="#E3E3E3"/>
<path d="M174.309 167.88C175.283 169.389 177.245 172.434 178.507 174.382H180.496C179.371 172.654 177.039 169.019 175.873 167.222L174.309 167.88Z" fill="#E3E3E3"/>
<path d="M175.31 174.382H177.299C176.394 172.969 174.625 170.226 173.363 168.278L171.799 168.95C172.855 170.582 174.323 172.846 175.31 174.382Z" fill="#E3E3E3"/>
<path d="M186.476 99.2393C186.476 99.2393 156.244 101.173 155.366 104.658C154.502 108.155 152.005 145.26 153.871 161.09C153.871 161.09 165.338 161.886 170.825 160.555L172.156 121.955L181.209 120.912L201.949 95.9746L186.476 99.2393Z" fill="#D6D3C4"/>
<path d="M201.003 98.6631C201.003 98.6631 177.684 105.247 176.819 108.731C175.941 112.229 173.459 145.343 175.324 161.186C175.324 161.186 187.656 161.885 193.143 160.555L194.624 124.136L199.947 124.328L212.841 101.626L201.003 98.6631Z" fill="#EAE7D8"/>
<path d="M185.749 161.611C191.195 161.611 193.143 160.788 193.225 160.747L193.349 160.692L194.775 124.067L192.526 125.123L192.704 125.507L194.336 124.739L192.937 160.404C192.347 160.609 189.521 161.432 182.855 161.117L182.828 161.542C183.897 161.583 184.871 161.611 185.749 161.611Z" fill="#6E32ED"/>
<path d="M190.852 153.71C191.442 151.461 191.606 129.582 191.606 128.649H191.195C191.181 128.882 191.017 151.406 190.454 153.6L190.852 153.71Z" fill="#6E32ED"/>
<path d="M169.193 122.778C171.95 121.872 175.763 121.749 175.804 121.749L175.791 121.324C175.749 121.324 171.881 121.461 169.055 122.366L169.193 122.778Z" fill="#6E32ED"/>
<path d="M162.965 161.528C167.629 161.528 170.839 160.774 170.88 160.76L171.031 160.719L172.375 121.68L170.66 123.079L170.921 123.395L171.922 122.586L170.619 160.39C169.906 160.541 166.792 161.158 162.567 161.103L162.554 161.528C162.691 161.528 162.828 161.528 162.965 161.528Z" fill="#6E32ED"/>
<path d="M168.836 154.519C169.412 151.131 168.863 128.196 168.836 127.222L168.411 127.235C168.424 127.469 168.987 151.103 168.424 154.45L168.836 154.519Z" fill="#6E32ED"/>
<path d="M208.986 124.712C214.308 124.712 220.673 124.533 227.82 123.999C227.943 123.985 228.025 123.889 228.012 123.765C228.012 123.656 227.902 123.573 227.792 123.573C206.339 125.178 191.977 123.587 191.826 123.56L191.785 123.985C191.881 123.985 198.328 124.712 208.986 124.712Z" fill="#6E32ED"/>
<path d="M201.606 86.9072C201.195 86.9072 184.446 94.1087 184.446 94.1087L187.821 100.57L197.217 98.4982L201.606 86.9072Z" fill="#3F4046"/>
<path d="M225.872 56.8945C225.872 56.8945 232.991 56.6476 236.393 58.5817C241.468 61.4486 239.658 77.9092 239.658 77.9092C239.658 77.9092 235.35 75.5635 235.076 74.7679C234.816 73.9861 225.872 56.8945 225.872 56.8945Z" fill="#3F4046"/>
<path d="M227.6 92.6274C227.591 92.6274 227.582 92.6274 227.573 92.6274L222.333 93.8345C222.223 93.862 222.127 93.7934 222.1 93.6837C222.072 93.5739 222.141 93.4779 222.251 93.4505L227.477 92.2571C227.587 92.2296 227.696 92.2982 227.724 92.3942C227.737 92.4903 227.683 92.5863 227.6 92.6274Z" fill="#6E32ED"/>
<path d="M230.33 89.5137L227.148 90.8854L223.595 92.5726C223.595 92.5726 218.094 93.5328 218.012 93.5054C217.998 93.5054 218.465 94.3284 218.465 94.3284C211.633 95.1789 190.084 96.0567 186.545 96.4545C184.419 96.6877 182.375 99.3352 181.072 101.406L182.827 102.6C182.827 102.6 201.647 101.763 201.606 102.161C201.593 102.284 201.058 104.15 200.235 106.592C211.853 107.373 228.135 107.305 231.153 102.504C233.636 98.5807 231.222 92.943 230.33 89.5137Z" fill="#F9B59D"/>
<path d="M232.758 58.1838C228.711 57.6214 218.039 57.2373 218.039 57.2373C218.039 57.2373 216.627 57.6077 217.065 57.4019C205.282 59.4869 203.979 68.2247 203.979 68.2247L198.218 93.4917L191.812 93.8347C189.741 97.7715 191.264 108.361 191.264 108.361L222.292 111.859C222.292 111.859 228.999 112.97 234.665 105.686C238.423 100.885 239.699 86.0982 239.699 75.3028C239.699 75.3028 239.054 59.048 232.758 58.1838Z" fill="#3F4046"/>
<path d="M145.86 77.7441H175.393L185.694 103.985H156.161L145.86 77.7441Z" fill="#E3E3E3"/>
<path d="M185.694 103.985H184.158L173.857 77.7441H175.393L185.694 103.985Z" fill="#D6D3C4"/>
<path d="M165.174 90.0344C165.571 91.2415 165.283 92.4349 164.501 92.6955C163.72 92.9561 162.759 92.2017 162.348 90.9946C161.936 89.7875 162.238 88.5941 163.02 88.3334C163.788 88.0591 164.762 88.8273 165.174 90.0344Z" fill="#3F4046"/>
<path d="M195.461 101.872H184.432V103.985H195.461C196.051 103.985 196.531 103.504 196.531 102.928C196.531 102.338 196.051 101.872 195.461 101.872Z" fill="#D6D3C4"/>
<path d="M192.676 102.929H185.694V102.6H192.676V102.929Z" fill="#E3E3E3"/>
<path d="M222.333 93.9307C222.296 93.9489 222.26 93.9535 222.223 93.9444C222.113 93.9169 222.045 93.8072 222.072 93.6975C222.1 93.5603 225.351 79.7746 226.722 71.1053C226.75 70.9956 226.846 70.927 226.956 70.9407C227.052 70.9544 227.134 71.0642 227.12 71.1739C225.735 79.8569 222.484 93.6563 222.456 93.7935C222.443 93.8621 222.388 93.9032 222.333 93.9307Z" fill="#6E32ED"/>
<path d="M202.265 93.7109C202.219 93.7201 202.178 93.7201 202.141 93.7109C202.032 93.6698 201.977 93.56 202.004 93.464C202.059 93.3131 206.86 78.0459 207.875 72.7648C207.889 72.6551 207.999 72.5865 208.095 72.614C208.204 72.6277 208.273 72.7374 208.259 72.8334C207.244 78.142 202.429 93.4229 202.374 93.5738C202.361 93.6423 202.32 93.6835 202.265 93.7109Z" fill="#6E32ED"/>
<path d="M221.825 64.6446C221.67 64.6628 221.514 64.6766 221.359 64.6857C221.263 64.6857 221.194 64.6171 221.181 64.5348C221.181 64.4388 221.249 64.3702 221.331 64.3565C228.08 63.8764 229.342 58.9382 229.342 58.8971C229.37 58.801 229.452 58.7462 229.534 58.7599C229.617 58.7736 229.685 58.8559 229.672 58.9382C229.658 58.9931 228.41 63.9587 221.825 64.6446Z" fill="#6E32ED"/>
<path d="M200.879 90.0619C200.797 90.0894 200.701 90.0619 200.646 89.9796L199.329 87.7163L199.343 87.6477L203.787 68.1831C203.815 68.0185 204.199 65.7414 206.119 63.2449C207.916 60.8993 211.469 57.9227 218.163 57.031C218.273 57.0173 218.369 57.0859 218.382 57.1956C218.396 57.3054 218.327 57.4014 218.218 57.4151C211.675 58.293 208.204 61.1873 206.435 63.4644C204.542 65.9335 204.171 68.2379 204.171 68.2517V68.2654L199.754 87.6614L200.989 89.7739C201.044 89.8699 201.003 89.9934 200.92 90.0482C200.911 90.0574 200.898 90.0619 200.879 90.0619Z" fill="#6E32ED"/>
<path d="M193.952 90.1314C193.842 90.1725 193.733 90.1176 193.691 90.0216C193.65 89.9256 193.705 89.8021 193.801 89.7747L199.466 87.5114C199.576 87.4702 199.686 87.5251 199.727 87.6211C199.768 87.7171 199.713 87.8269 199.617 87.868L193.952 90.1314Z" fill="#6E32ED"/>
<path d="M191.812 93.8345C191.812 93.8345 189.768 98.6766 191.264 108.361L198.753 104.342L196.531 97.1129L191.812 93.8345Z" fill="#3F4046"/>
<path d="M229.095 94.1088C229.077 94.1179 229.054 94.1225 229.027 94.1225C228.739 94.1088 201.016 93.2721 191.949 94.0265C191.73 94.6163 190.701 97.7027 190.989 103.327C190.989 103.436 190.907 103.532 190.811 103.532C190.701 103.532 190.605 103.45 190.605 103.34C190.276 96.962 191.579 93.8893 191.634 93.7659L191.675 93.6561L191.799 93.6424C200.756 92.8743 228.753 93.711 229.041 93.7247C229.15 93.7247 229.233 93.8208 229.219 93.9305C229.219 94.0128 229.164 94.0814 229.095 94.1088Z" fill="#6E32ED"/>
<path d="M216.421 42.5329L216.201 51.065C216.201 51.065 216.023 53.8084 218.41 54.2062L217.861 57.855C217.669 59.213 218.437 60.5298 219.74 60.9825C220.371 61.202 221.126 61.3666 221.99 61.394C224.733 61.4626 226.27 59.4462 226.53 58.4174C226.777 57.4023 226.229 52.4641 226.229 52.4641L226.366 50.0636L226.297 40.6948L216.421 42.5329Z" fill="#FE9F73"/>
<path d="M224.034 52.0249C224.034 52.0249 223.746 56.6064 218.012 56.8945L218.41 54.2059C218.41 54.2059 222.1 55.0564 224.034 52.0249Z" fill="#F07162"/>
<path d="M222.923 47.1828C222.95 47.1828 222.978 47.1737 223.005 47.1554C223.046 47.1142 223.06 47.0456 223.019 46.9908C223.005 46.9771 221.469 45.331 220.001 46.4421C219.96 46.4832 219.946 46.5518 219.987 46.6067C220.015 46.6616 220.097 46.6616 220.138 46.6341C221.441 45.6328 222.786 47.0868 222.84 47.1417C222.868 47.1691 222.895 47.1828 222.923 47.1828Z" fill="#3F4046"/>
<path d="M226.887 46.0852L224.418 46.5379L223.952 46.9906C223.952 46.9906 224.281 42.8617 224.761 42.0524C225.255 41.2568 226.887 46.0852 226.887 46.0852Z" fill="#3F4046"/>
<path d="M218.231 46.3731C218.273 46.3731 218.3 46.3594 218.327 46.3319C218.369 46.2908 218.369 46.2222 218.314 46.1811C218.273 46.1399 217.203 45.1797 216.503 45.7421C216.448 45.7833 216.448 45.8656 216.489 45.9067C216.531 45.9616 216.599 45.9616 216.64 45.9204C217.203 45.4815 218.149 46.3319 218.163 46.3457C218.181 46.364 218.204 46.3731 218.231 46.3731Z" fill="#3F4046"/>
<path d="M220.605 47.5807C220.605 47.7727 220.755 47.9373 220.934 47.9373C221.126 47.9373 221.29 47.7864 221.29 47.6081C221.29 47.4161 221.14 47.2515 220.961 47.2515C220.769 47.2515 220.605 47.4024 220.605 47.5807Z" fill="#3F4046"/>
<path d="M216.97 47.1417C216.97 47.3338 217.12 47.4984 217.299 47.4984C217.491 47.4984 217.655 47.3612 217.655 47.1692C217.655 46.9771 217.518 46.8125 217.326 46.8125C217.134 46.8125 216.97 46.9634 216.97 47.1417Z" fill="#3F4046"/>
<path d="M223.444 47.5395C223.403 48.678 224.308 49.6245 225.447 49.6519C226.571 49.6793 227.518 48.7877 227.545 47.6492C227.573 46.5107 226.681 45.5642 225.543 45.5367C224.418 45.5093 223.471 46.4009 223.444 47.5395Z" fill="#FE9F73"/>
<path d="M225.817 48.7461C226.256 48.7598 226.544 48.4443 226.64 48.1288C226.764 47.7447 226.654 47.3744 226.352 47.1686C225.899 46.8806 225.488 47.0452 225.268 47.1823C225.36 46.9537 225.502 46.7891 225.694 46.6885C226.105 46.4828 226.599 46.6474 226.613 46.6474C226.64 46.6611 226.667 46.6474 226.681 46.6199C226.695 46.5925 226.681 46.5514 226.654 46.5514C226.626 46.5376 226.105 46.3456 225.639 46.5925C225.378 46.716 225.2 46.9766 225.104 47.3195L225.049 47.5253L225.2 47.3744C225.213 47.3607 225.721 46.8943 226.283 47.2646C226.599 47.4704 226.613 47.8408 226.544 48.0877C226.462 48.3483 226.215 48.6364 225.831 48.6226C225.822 48.6226 225.817 48.6226 225.817 48.6226C225.79 48.6226 225.762 48.6501 225.762 48.6775C225.762 48.7187 225.776 48.7461 225.817 48.7461Z" fill="#F07162"/>
<path d="M219.343 49.8712C219.356 49.8712 219.384 49.8575 219.397 49.83C219.397 49.8026 219.384 49.7614 219.356 49.7477L218.218 49.3499L218.657 46.6614C218.657 46.6339 218.643 46.6065 218.602 46.5928C218.574 46.5928 218.547 46.6065 218.547 46.6476L218.094 49.4185L219.315 49.8575C219.324 49.8666 219.333 49.8712 219.343 49.8712Z" fill="#F07162"/>
<path d="M220.193 50.996C220.166 50.996 217.93 50.8862 217.93 50.8862C217.93 50.8862 218.19 51.8053 219.013 51.8601C219.85 51.9013 220.193 50.996 220.193 50.996Z" fill="#FBFDFC"/>
<path d="M226.887 46.0854C226.887 46.0854 227.696 42.1074 226.503 40.5848C225.323 39.0485 218.355 36.2639 217.477 36.9909C216.613 37.7042 217.436 38.6369 217.436 38.6369C217.436 38.6369 214.638 37.663 213.924 40.1458C213.225 42.6286 219.274 43.8632 222.923 42.7795C222.923 42.7795 225.31 43.534 226.887 46.0854Z" fill="#3F4046"/>
<path d="M227.696 111.282C227.23 111.447 226.805 111.584 226.407 111.694C224.006 112.325 222.333 112.064 222.264 112.051C222.155 112.037 222.072 111.941 222.1 111.831C222.113 111.721 222.209 111.653 222.319 111.667C222.333 111.667 224.006 111.927 226.325 111.31C228.464 110.734 231.619 109.28 234.514 105.576C238.149 100.912 239.466 86.5916 239.493 75.7413C239.493 75.6316 239.589 75.5493 239.699 75.5493C239.809 75.5493 239.891 75.6316 239.891 75.7413C239.863 86.6602 238.505 101.077 234.829 105.809C232.401 108.923 229.781 110.487 227.696 111.282Z" fill="#6E32ED"/>
<path d="M92.2395 4.52237C93.913 8.08883 91.54 19.913 91.54 19.913L90.374 19.7347C90.3877 19.3232 90.3054 18.1709 90.3054 18.1709L89.7019 19.6249L85.2026 18.8705L85.6827 0.407227C85.6827 0.407227 90.566 0.96963 92.2395 4.52237Z" fill="#3F4046"/>
<path d="M89.743 6.22291C89.743 6.22291 91.8418 15.5094 86.835 16.5656L86.4509 22.9853L79.6884 21.0649L80.8269 0.379395C80.8269 0.379395 82.8433 0.736044 82.8433 0.914367C82.8296 1.07897 89.743 6.22291 89.743 6.22291Z" fill="#F9B59D"/>
<path d="M87.1504 12.2174C87.123 12.2174 87.0956 12.19 87.0956 12.1625C87.0956 12.1351 87.1093 12.0939 87.1504 12.0939C87.5619 12.0253 87.8363 11.5452 87.9186 11.3806C87.3699 11.0514 87.0407 10.6262 86.9447 10.1461C86.7938 9.3505 87.3288 8.66464 87.3562 8.63721H87.4385L87.4522 8.71951C87.4522 8.73322 86.931 9.39165 87.0681 10.1187C87.1504 10.585 87.4796 10.9828 88.0283 11.3121L88.0832 11.3395L88.0558 11.3806C88.042 11.4218 87.7266 12.1214 87.1641 12.2174H87.1504Z" fill="#ED7163"/>
<path d="M86.7252 18.5274L86.835 16.5659C86.835 16.5659 83.5291 16.1818 81.5676 14.7964C81.5676 14.7964 84.1875 17.5947 86.7252 18.5274Z" fill="#ED7163"/>
<path d="M85.7239 9.4054C85.7102 9.59744 85.5456 9.74833 85.3535 9.73462C85.1615 9.7209 85.0106 9.55629 85.0243 9.36425C85.038 9.17221 85.2026 9.02133 85.3947 9.03505C85.5867 9.04876 85.7376 9.21336 85.7239 9.4054Z" fill="#3F4046"/>
<path d="M89.2491 9.72084C89.2354 9.91288 89.0708 10.05 88.8788 10.05C88.6867 10.0363 88.5359 9.87172 88.5496 9.67968C88.5633 9.48764 88.7279 9.33676 88.9199 9.35048C89.112 9.35048 89.2629 9.5288 89.2491 9.72084Z" fill="#3F4046"/>
<path d="M85.4907 12.1904C85.5319 12.1904 87.8638 12.9312 87.8638 12.9312C87.8638 12.9312 87.2465 13.7953 86.3823 13.521C85.5044 13.2466 85.4907 12.1904 85.4907 12.1904Z" fill="#FBFDFC"/>
<path d="M87.6031 2.71153C87.6031 2.71153 86.4509 6.90898 82.3495 8.363C78.248 9.8033 80.2645 15.3039 80.2645 15.3039L76.7529 9.37807C76.7529 9.37807 77.3016 1.69646 80.8269 0.379613C83.392 -0.580587 88.1381 0.311028 87.6031 2.71153Z" fill="#3F4046"/>
<path d="M84.3522 8.07517C84.3933 8.08889 84.4345 8.08889 84.4756 8.07517C84.4756 8.06146 85.4084 7.59507 86.2863 7.95172C86.3549 7.97915 86.4235 7.95172 86.4509 7.88313C86.4783 7.82826 86.4509 7.74596 86.3823 7.71852C85.3947 7.32073 84.3933 7.82826 84.3522 7.8557C84.2973 7.88313 84.2699 7.96543 84.311 8.0203L84.3522 8.07517Z" fill="#3F4046"/>
<path d="M89.6882 8.84314C89.7293 8.85686 89.7705 8.84314 89.7979 8.81571C89.8391 8.76084 89.8391 8.69226 89.7979 8.63739C89.7568 8.60995 88.9612 7.81436 87.9049 7.91038C87.8364 7.91038 87.7815 7.97897 87.7952 8.04755C87.7952 8.11614 87.8501 8.15729 87.9187 8.15729C88.8789 8.07498 89.6059 8.80199 89.6196 8.81571L89.6882 8.84314Z" fill="#3F4046"/>
<path d="M87.219 4.33028L85.6141 2.64307L86.7801 4.56347L87.219 4.33028Z" fill="#EBA086"/>
<path d="M75.9298 4.89231C77.1369 0.598843 81.9791 0.0913086 81.9791 0.0913086L81.2932 8.56851C81.2932 8.56851 80.1684 12.2173 80.2781 17.7453L80.333 18.7878C80.333 18.7878 78.6046 18.582 76.6568 18.0745C76.5608 17.2515 76.3962 15.9209 76.3962 15.9209L75.7515 17.8139C75.3262 17.6904 74.8873 17.5395 74.4758 17.3749C74.4758 17.3749 74.9559 8.37647 75.9298 4.89231Z" fill="#3F4046"/>
<path d="M81.8282 10.1188C81.7734 11.2025 80.8406 12.0255 79.7569 11.9706C78.6733 11.902 77.8502 10.983 77.9051 9.89933C77.9737 8.81567 78.8928 7.99264 79.9764 8.04751C81.0601 8.10238 81.8831 9.03514 81.8282 10.1188Z" fill="#F9B59D"/>
<path d="M79.6609 11.2024C79.2494 11.1887 78.9888 10.8595 78.9202 10.544C78.8242 10.1736 78.975 9.83069 79.2768 9.66609C79.7158 9.41918 80.0861 9.5975 80.2919 9.73467C80.2187 9.52434 80.0999 9.36888 79.9352 9.26828C79.5649 9.03509 79.0848 9.15855 79.0711 9.15855C79.0436 9.17227 79.0025 9.14483 79.0025 9.1174C78.9888 9.08997 79.0025 9.04882 79.0436 9.0351C79.0573 9.0351 79.5786 8.89792 80.0038 9.15855C80.2416 9.30487 80.3971 9.55178 80.4702 9.89928L80.5114 10.1187L80.3605 9.95414C80.333 9.94043 79.8941 9.46033 79.3317 9.77582C79.0299 9.94043 78.975 10.2834 79.0299 10.5166C79.0985 10.7635 79.2905 11.0652 79.6746 11.079C79.7021 11.079 79.7295 11.1201 79.7295 11.1475C79.7295 11.1887 79.7021 11.2161 79.6746 11.2024H79.6609Z" fill="#ED7163"/>
<path d="M99.0569 36.0168C99.0569 36.0168 77.809 39.5696 74.2426 38.2253C70.6624 36.881 86.0667 24.8922 86.0667 24.8922L99.537 23.5205L99.0569 36.0168Z" fill="#F9B59D"/>
<path d="M95.7511 36.346C98.7277 37.4023 124.79 26.8949 124.79 26.8949L122.266 20.2695L96.5467 23.9457C96.5467 23.9457 92.7608 35.2761 95.7511 36.346Z" fill="#F9B59D"/>
<path d="M133.158 24.275C133.144 23.891 132.815 23.6029 132.431 23.5892L130.071 23.548C129.989 23.548 129.934 23.4932 129.907 23.4246C129.879 23.3286 129.948 23.2188 130.058 23.2051L133.528 22.8073C133.926 22.7662 134.145 22.4095 134.036 22.0254C133.912 21.6413 133.487 21.367 133.089 21.4219L129.536 21.8197C129.454 21.8334 129.386 21.7785 129.358 21.6962L129.344 21.6413C129.303 21.559 129.358 21.463 129.454 21.4219L133.213 20.2285C133.583 20.105 133.802 19.7347 133.72 19.3643C133.61 18.9528 133.199 18.7333 132.801 18.8568L129.015 20.0639C128.919 20.0913 128.823 20.0502 128.796 19.9541L128.741 19.7758C128.713 19.6935 128.755 19.6112 128.837 19.5701L132.184 17.9926C132.527 17.828 132.705 17.4302 132.554 17.0735C132.403 16.6895 131.964 16.5111 131.594 16.6895C131.594 16.6895 126.368 18.8156 125.517 19.09L126.107 17.101C126.285 16.758 126.148 16.3191 125.792 16.1408C125.449 15.9624 125.01 16.0996 124.831 16.4426L122.266 20.2696C122.143 20.4891 122.307 20.9829 122.527 21.3533C123.501 25.4547 123.679 26.072 124.05 27.1556L128.288 25.633C129.509 25.2078 130.812 24.9883 132.102 25.0158H132.431C132.842 25.0295 133.185 24.6866 133.158 24.275Z" fill="#F9B59D"/>
<path d="M164.447 30.4201C168.877 44.7133 160.894 59.8845 146.601 64.3152C132.307 68.7458 117.136 60.7487 112.705 46.4691C108.275 32.1759 116.272 17.0047 130.551 12.5741C144.845 8.14343 160.016 16.1405 164.447 30.4201Z" fill="#FEDB69"/>
<path d="M160.949 31.5042C164.79 43.8634 157.876 56.9907 145.517 60.8178C133.158 64.6586 120.03 57.7451 116.203 45.386C112.376 33.0268 119.29 19.8995 131.635 16.0724C143.994 12.2316 157.122 19.1451 160.949 31.5042Z" fill="#FFFA7B"/>
<path d="M146.916 37.1417C145.672 36.3187 143.633 35.7655 140.798 35.482C140.213 35.4271 139.404 35.3585 138.37 35.2762C135.014 35.0293 133.135 34.252 132.733 32.9443C132.467 32.0938 132.563 31.3257 133.021 30.6398C133.478 29.954 134.237 29.4464 135.298 29.1172C136.386 28.7789 137.387 28.7606 138.302 29.0623C139.207 29.3641 140.112 30.0088 141.018 30.9965L144.955 28.0061C143.683 26.3418 142.165 25.2627 140.4 24.7689C139.239 24.4397 137.986 24.3665 136.642 24.5494L135.572 21.1201L131.251 22.4644L132.321 25.9074C130.858 26.6664 129.724 27.6678 128.919 28.9115C127.758 30.7038 127.502 32.6471 128.151 34.7412C128.526 35.9758 129.129 37 129.962 37.8139C130.785 38.6278 131.791 39.1947 132.979 39.5148C134.177 39.8532 136.194 40.0955 139.029 40.2418C139.44 40.251 139.756 40.2647 139.975 40.283C141.594 40.3744 142.769 40.603 143.5 40.9688C144.223 41.3346 144.708 41.9199 144.955 42.7246C145.275 43.7306 145.147 44.6496 144.57 45.4818C144.003 46.3048 143.066 46.9175 141.758 47.3199C140.606 47.6857 139.513 47.6811 138.48 47.3062C137.437 46.9312 136.358 46.1585 135.243 44.988L131.429 48.3349C132.911 50.1182 134.644 51.275 136.628 51.8054C137.826 52.1254 139.097 52.2169 140.442 52.0797L141.58 55.7696L145.901 54.4254L144.804 50.8863C146.697 50.0542 148.096 48.9019 149.001 47.4296C150.144 45.5732 150.345 43.4471 149.605 41.0511C149.056 39.277 148.16 37.9739 146.916 37.1417Z" fill="#FEDB69"/>
<path d="M131.855 64.8504C129.797 64.3292 127.794 63.561 125.888 62.546C119.441 59.1578 114.708 53.4652 112.555 46.5106C110.401 39.556 111.087 32.1899 114.475 25.7429C117.863 19.3095 123.556 14.5771 130.51 12.4235C130.593 12.3961 130.675 12.4372 130.702 12.5195C130.73 12.6018 130.689 12.6978 130.606 12.7253C116.423 17.1148 108.453 32.2311 112.856 46.4146C114.983 53.2869 119.66 58.9246 126.025 62.2716C132.39 65.6186 139.687 66.3045 146.546 64.1646C146.628 64.1372 146.724 64.192 146.752 64.2743C146.779 64.3566 146.724 64.4389 146.642 64.4664C141.772 65.9753 136.683 66.0987 131.855 64.8504Z" fill="#6E32ED"/>
<path d="M145.476 60.9683C145.421 60.9546 145.38 60.9272 145.366 60.8723C145.339 60.79 145.38 60.694 145.462 60.6665C157.725 56.8669 164.611 43.8082 160.812 31.5587C158.96 25.6192 154.927 20.7496 149.426 17.8553C143.926 14.961 137.63 14.3711 131.69 16.223C131.608 16.2367 131.512 16.1955 131.498 16.1132C131.471 16.0309 131.512 15.9486 131.594 15.9212C137.616 14.0557 143.994 14.6455 149.563 17.581C155.146 20.5164 159.234 25.4409 161.1 31.4627C164.954 43.8767 157.986 57.1138 145.558 60.9683H145.476Z" fill="#6E32ED"/>
<path d="M119.029 30.2007C118.961 30.187 118.906 30.1184 118.919 30.0361C118.919 29.9949 119.55 25.0705 123.281 22.2585C123.35 22.2036 123.446 22.2173 123.501 22.2859C123.556 22.3545 123.542 22.4505 123.473 22.5054C119.838 25.2488 119.235 30.0224 119.221 30.0772C119.221 30.1595 119.139 30.2144 119.057 30.2144L119.029 30.2007Z" fill="#6E32ED"/>
<path d="M121.58 31.2159C121.512 31.2022 121.457 31.1336 121.471 31.0513C121.471 30.9964 122.102 26.0857 125.833 23.26C125.901 23.2188 125.997 23.2325 126.052 23.3011C126.107 23.3697 126.093 23.4657 126.025 23.5069C122.39 26.264 121.786 31.0376 121.773 31.0925C121.773 31.1748 121.69 31.2296 121.608 31.2296L121.58 31.2159Z" fill="#6E32ED"/>
<path d="M128.878 29.0621L128.823 29.0484C128.755 28.9935 128.741 28.8975 128.782 28.8289C129.578 27.5944 130.702 26.593 132.143 25.8249L131.114 22.5053C131.086 22.423 131.128 22.3407 131.21 22.3133C131.292 22.2859 131.375 22.3407 131.402 22.423L132.513 25.9758L132.39 26.0444C130.963 26.7851 129.825 27.7727 129.043 28.9935C129.001 29.0484 128.933 29.0758 128.878 29.0621Z" fill="#6E32ED"/>
<path d="M132.691 33.0812C132.636 33.0812 132.595 33.04 132.582 32.9851C132.307 32.0935 132.417 31.2705 132.897 30.5572C133.364 29.8439 134.159 29.3089 135.256 28.9797C136.368 28.6231 137.41 28.6094 138.343 28.9111C139.248 29.2129 140.153 29.8439 141.045 30.7904L144.735 27.9784C143.514 26.4146 142.033 25.3858 140.359 24.9195C139.234 24.604 137.986 24.5354 136.656 24.7137C136.573 24.7137 136.491 24.6588 136.477 24.5765C136.477 24.4942 136.532 24.4119 136.614 24.3982C137.986 24.2199 139.262 24.2885 140.442 24.6177C142.239 25.1252 143.789 26.2363 145.078 27.9098L145.16 28.0332L141.004 31.2156L140.908 31.1059C140.016 30.132 139.125 29.501 138.247 29.2129C137.383 28.9249 136.395 28.9386 135.339 29.2678C134.324 29.5833 133.583 30.0771 133.158 30.7218C132.719 31.3802 132.636 32.0798 132.883 32.8891C132.911 32.9714 132.856 33.0674 132.774 33.0812H132.691Z" fill="#6E32ED"/>
<path d="M145.86 54.5757C145.805 54.562 145.764 54.5208 145.75 54.466L144.612 50.8035L144.735 50.7486C146.601 49.9256 147.986 48.7871 148.864 47.3468C149.989 45.5361 150.181 43.4374 149.454 41.0917C149.426 41.0094 149.481 40.9271 149.563 40.8997C149.646 40.8723 149.728 40.9271 149.756 41.0095C150.51 43.4374 150.304 45.6184 149.138 47.5114C148.247 48.9654 146.847 50.1314 144.996 50.9681L146.052 54.3837C146.066 54.466 146.024 54.5483 145.942 54.5757H145.86Z" fill="#6E32ED"/>
<path d="M136.683 51.9834C136.646 51.9743 136.614 51.9652 136.587 51.956C134.571 51.421 132.801 50.2276 131.306 48.4307L131.21 48.321L135.256 44.7682L135.352 44.878C136.45 46.0302 137.52 46.7984 138.521 47.155C139.536 47.5117 140.606 47.5254 141.717 47.1824C142.979 46.7846 143.898 46.1811 144.447 45.3855C144.996 44.6036 145.119 43.7394 144.817 42.7655C144.584 42.0111 144.118 41.4487 143.432 41.1057C143.35 41.0646 143.322 40.9686 143.363 40.9C143.404 40.8177 143.487 40.7903 143.569 40.8314C144.337 41.2155 144.845 41.8328 145.105 42.6695C145.435 43.7257 145.297 44.6996 144.708 45.5638C144.118 46.428 143.144 47.059 141.813 47.4705C140.634 47.8409 139.495 47.8272 138.425 47.4431C137.396 47.0864 136.326 46.332 135.229 45.2072L131.635 48.3484C133.075 50.0356 134.763 51.1467 136.656 51.6542C137.835 51.9697 139.097 52.0658 140.414 51.9149C140.51 51.9149 140.579 51.9697 140.592 52.052C140.606 52.1481 140.538 52.2166 140.455 52.2304C139.125 52.3675 137.863 52.2852 136.683 51.9834Z" fill="#6E32ED"/>
<path d="M66.8628 123.478L68.7832 170.747H81.2658L86.6292 123.478H66.8628Z" fill="#F9B59D"/>
<path d="M46.2184 106.016L40.4847 111.118L9.33304 120.501L5.47852 122.449L6.09579 130.226L10.2109 133.368C10.2109 133.368 50.704 127.551 52.8713 125.878C55.0249 124.204 59.1674 118.965 59.1674 118.965C59.1674 118.965 66.4238 108.073 65.834 106.016C65.2441 103.958 59.2635 99.8291 58.7696 99.8291C58.2895 99.8291 46.2184 106.016 46.2184 106.016Z" fill="#F9B59D"/>
<path d="M72.6103 176.412L89.9213 176.137C90.0768 176.119 90.2002 176.092 90.2917 176.055C91.924 175.534 91.2382 173.682 91.2382 173.682L81.5539 168.113L77.0958 170.129C77.0958 170.129 69.7571 171.364 68.7146 169.279L68.8655 174.711C68.8655 174.711 68.3305 176.453 72.6103 176.412Z" fill="#E3E3E3"/>
<path d="M43.5025 116.976C43.3653 116.976 43.2418 116.907 43.1733 116.77L40.3887 111.448C40.2927 111.256 40.3612 111.022 40.5533 110.926C40.7316 110.83 40.9648 110.899 41.0608 111.091L43.8454 116.427C43.9414 116.605 43.8728 116.838 43.6808 116.935C43.6259 116.962 43.5665 116.976 43.5025 116.976Z" fill="#F07162"/>
<path d="M61.6914 59.1719C61.6914 59.1719 54.4213 85.646 31.7194 106.304C31.7194 106.304 42.2953 123.972 68.4951 130.103C90.5934 135.275 95.6002 133.368 95.6002 133.368L94.5028 64.6862L61.6914 59.1719Z" fill="#3F4046"/>
<path d="M85.6278 21.298L92.8019 27.8686L99.9074 34.8917L96.5329 49.5417L76.9586 34.5488L72.72 25.2897C72.72 25.2897 75.3262 20.9963 78.4263 20.6259C79.6334 20.1047 82.2534 19.0347 85.6278 21.298Z" fill="#F9B59D"/>
<path d="M74.7913 25.8798C75.4223 23.9594 76.4648 22.6563 77.4661 21.8058C78.6595 20.7907 80.1684 20.2421 81.7322 20.2146C81.7413 20.2146 81.7505 20.2146 81.7596 20.2146C75.1068 19.3367 72.0616 26.8263 72.0616 26.8263L57.494 72.3398C72.7063 84.1914 93.8856 81.7498 93.8856 81.7498C94.1736 79.2807 94.7086 50.1317 94.736 48.2113C75.628 33.1362 73.3236 30.4476 74.7913 25.8798Z" fill="#3F4046"/>
<path d="M36.6028 112.38C37.2749 113.079 38.0294 113.834 38.8524 114.602C47.9606 105.508 54.97 93.2719 59.4144 84.1363C64.7915 73.0665 67.6996 64.0269 67.727 63.9446L64.7092 62.9707C64.6818 63.0667 61.8286 71.928 56.5475 82.792C52.2129 91.6944 45.3955 103.601 36.6028 112.38Z" fill="#E3E3E3"/>
<path d="M65.0521 94.1913C70.3606 79.6237 73.7762 66.5924 73.8173 66.4689L70.7447 65.6733C70.635 66.0986 60.9918 102.668 48.7561 122.106C49.634 122.645 50.5485 123.176 51.4995 123.697C55.9439 116.633 60.4706 106.77 65.0521 94.1913Z" fill="#E3E3E3"/>
<path d="M82.3906 68.9517L79.3179 68.1973C79.2356 68.5402 72.1987 97.4285 64.6132 129.074C65.6099 129.367 66.6341 129.646 67.6858 129.911C75.2714 98.2241 82.3083 69.2946 82.3906 68.9517Z" fill="#E3E3E3"/>
<path d="M86.6429 103.176C88.9748 85.9468 89.9624 70.8991 89.9762 70.7482L86.8212 70.5425C86.7801 71.0089 84.3384 107.346 78.152 132.132C79.2676 132.334 80.3147 132.517 81.2932 132.681C83.2685 124.725 85.0654 114.876 86.6429 103.176Z" fill="#E3E3E3"/>
<path d="M61.1016 61.064C61.1016 61.064 79.3728 67.6345 94.3519 70.1447L94.736 70.1996L94.6537 72.7235C94.6537 72.7235 81.5264 72.8744 60.1414 64.0406L61.1016 61.064Z" fill="#E3E3E3"/>
<path d="M94.5851 82.422C94.576 82.422 94.5714 82.422 94.5714 82.422C94.4479 82.422 94.3519 82.3123 94.3519 82.1888L94.6811 42.9441C94.6811 42.8206 94.7909 42.7246 94.9143 42.7246C95.0378 42.7246 95.1338 42.8206 95.1338 42.9441L94.8046 82.1888C94.8046 82.3123 94.7086 82.422 94.5851 82.422Z" fill="#3F4046"/>
<path d="M84.7225 38.8835C84.7225 38.8835 94.3108 48.6776 97.5481 50.1316C100.799 51.5719 130.044 42.2031 130.044 42.2031L125.435 35.8246L102.761 37.21L92.8019 27.8687L84.7225 38.8835Z" fill="#F9B59D"/>
<path d="M65.3402 48.6231L64.8738 48.4723L71.362 28.2395C72.8435 23.6031 74.3935 22.3822 76.4236 21.1614C78.975 19.6251 82.4729 19.4605 84.2561 20.2012C86.8075 21.2574 101.526 35.8799 101.841 36.2091C101.938 36.3051 101.924 36.4698 101.828 36.5521C101.732 36.6481 101.581 36.6481 101.485 36.5521C101.403 36.4698 86.5194 21.6689 84.0641 20.6539C82.6101 20.0503 79.2356 20.0366 76.6705 21.5729C74.7364 22.7389 73.255 23.9186 71.8147 28.3904L65.3402 48.6231Z" fill="#3F4046"/>
<path d="M89.5647 44.3432C89.5098 44.3432 89.4412 44.3295 89.4001 44.2884L77.2878 33.7262C77.1781 33.6439 77.1644 33.493 77.2604 33.3832C77.3427 33.2872 77.5073 33.2735 77.6033 33.3558L89.7293 43.918C89.8253 44.014 89.839 44.1649 89.743 44.2609C89.7018 44.3158 89.6332 44.3432 89.5647 44.3432Z" fill="#3F4046"/>
<path d="M79.7981 35.8385H76.6157C76.4785 35.8385 76.3688 35.7288 76.3688 35.5916C76.3688 35.4681 76.4785 35.3584 76.6157 35.3584H79.7981C79.9352 35.3584 80.045 35.4681 80.045 35.5916C80.045 35.7288 79.9352 35.8385 79.7981 35.8385Z" fill="#3F4046"/>
<path d="M92.2944 133.669C83.1314 133.669 74.4484 132.435 66.4102 129.993C59.2087 127.798 52.5147 124.63 46.5203 120.583C36.2873 113.697 31.5549 106.509 31.5137 106.441L31.404 106.276L31.5549 106.125C31.6646 106.015 43.1733 94.7811 48.0017 86.88C48.0703 86.7703 48.2212 86.7291 48.331 86.7977C48.4544 86.8663 48.4818 87.0172 48.4133 87.1406C43.8592 94.6027 33.4067 105 32.035 106.345C32.8031 107.442 37.5218 113.93 46.8084 120.199C56.1772 126.509 72.2399 133.875 95.5865 133.12C95.7237 133.107 95.8335 133.23 95.8472 133.367C95.8472 133.505 95.7374 133.614 95.614 133.614C94.4983 133.651 93.3918 133.669 92.2944 133.669Z" fill="#3F4046"/>
<path d="M84.5579 127.908C84.4756 127.908 84.3933 127.867 84.3385 127.784C84.2836 127.661 84.3248 127.51 84.4345 127.455L91.9652 123.258C92.0887 123.189 92.2395 123.23 92.2944 123.354C92.363 123.477 92.3218 123.628 92.1984 123.683L84.6814 127.88C84.6448 127.899 84.6037 127.908 84.5579 127.908Z" fill="#3F4046"/>
<path d="M88.3164 128.786C88.2478 128.786 88.1655 128.745 88.1243 128.676C88.042 128.567 88.0694 128.416 88.1929 128.334L94.2147 124.383C94.3245 124.301 94.4754 124.328 94.5577 124.452C94.6262 124.561 94.5988 124.712 94.4891 124.781L88.4535 128.745C88.417 128.772 88.3712 128.786 88.3164 128.786Z" fill="#3F4046"/>
<path d="M136.505 35.1935C137.753 33.3966 136.025 33.5749 136.025 33.5749C136.587 32.5461 136.313 32.2032 135.983 32.0934C135.75 32.0111 135.476 32.066 135.27 32.2169C134.612 32.6833 132.609 34.1099 131.416 35.0701C130.428 35.2484 130.332 33.5474 130.551 32.601C130.661 32.1209 130.497 31.4076 129.632 32.3815C128.919 33.1771 128.124 35.4267 128.124 35.4267L122.609 36.2497L125.27 43.4649C125.27 43.4649 131.388 41.8463 132.307 41.5994C133.24 41.3662 136.066 39.5281 136.807 38.4856C138.123 36.5789 137.04 36.771 137.04 36.771C138.233 34.6722 136.505 35.1935 136.505 35.1935Z" fill="#F9B59D"/>
<path d="M134.392 35.2891C134.351 35.3028 134.296 35.2891 134.269 35.2479C134.228 35.1931 134.241 35.1245 134.283 35.0833C134.996 34.5621 135.929 33.5196 135.942 33.5058C135.983 33.4647 136.052 33.451 136.107 33.4921C136.148 33.5333 136.162 33.6156 136.107 33.6567C136.079 33.6979 135.16 34.7267 134.42 35.2754C134.411 35.2845 134.401 35.2891 134.392 35.2891Z" fill="#F07162"/>
<path d="M134.859 36.6751C134.804 36.6888 134.749 36.6614 134.721 36.6203C134.68 36.5654 134.708 36.4968 134.763 36.4556C135.709 35.9344 136.422 35.1251 136.422 35.1251C136.464 35.0702 136.546 35.0702 136.587 35.1114C136.628 35.1525 136.642 35.2211 136.601 35.276C136.573 35.3034 135.86 36.1127 134.872 36.6614C134.863 36.6614 134.859 36.666 134.859 36.6751Z" fill="#F07162"/>
<path d="M135.627 38.1563C135.572 38.17 135.517 38.1562 135.49 38.1014C135.449 38.0465 135.476 37.9779 135.531 37.9505C136.326 37.4704 136.944 36.7159 136.957 36.7022C136.999 36.6474 137.067 36.6474 137.108 36.6885C137.163 36.7297 137.177 36.7983 137.136 36.8531C137.108 36.8806 136.477 37.6487 135.641 38.1425C135.641 38.1517 135.636 38.1563 135.627 38.1563Z" fill="#F07162"/>
<path d="M2.10406 124.232L1.99432 141.556C2.01261 141.712 2.03548 141.835 2.06291 141.927C2.55673 143.559 3.58551 143.038 3.58551 143.038L10.2109 133.367L8.29049 128.854C8.29049 128.854 7.22056 121.502 9.333 120.5L3.88729 120.528C3.88729 120.528 2.15893 119.952 2.10406 124.232Z" fill="#E3E3E3"/>
<path d="M1.99437 144.465C1.33595 144.465 0.814697 143.943 0.814697 143.299V121.159C0.814697 120.514 1.33595 119.993 1.99437 119.993C2.63908 119.993 3.16033 120.514 3.16033 121.159V143.299C3.16033 143.943 2.63908 144.465 1.99437 144.465Z" fill="#3F4046"/>
<path d="M92.3218 175.232C92.3218 175.891 91.8006 176.412 91.1558 176.412H69.0164C68.3717 176.412 67.8504 175.891 67.8504 175.232C67.8504 174.588 68.3717 174.066 69.0164 174.066H91.1558C91.8006 174.066 92.3218 174.588 92.3218 175.232Z" fill="#3F4046"/>
</svg>
