<svg width="108" height="20" viewBox="0 0 108 20" fill="none" xmlns="http://www.w3.org/2000/svg">
<path d="M9.99996 1.6665L12.575 6.88317L18.3333 7.72484L14.1666 11.7832L15.15 17.5165L9.99996 14.8082L4.84996 17.5165L5.83329 11.7832L1.66663 7.72484L7.42496 6.88317L9.99996 1.6665Z" fill="#FED74E"/>
<path d="M32 1.6665L34.575 6.88317L40.3333 7.72484L36.1666 11.7832L37.15 17.5165L32 14.8082L26.85 17.5165L27.8333 11.7832L23.6666 7.72484L29.425 6.88317L32 1.6665Z" fill="#FED74E"/>
<path d="M76 1.6665L78.575 6.88317L84.3333 7.72484L80.1666 11.7832L81.15 17.5165L76 14.8082L70.85 17.5165L71.8333 11.7832L67.6666 7.72484L73.425 6.88317L76 1.6665Z" fill="#FED74E"/>
<path d="M54 1.6665L56.575 6.88317L62.3333 7.72484L58.1666 11.7832L59.15 17.5165L54 14.8082L48.85 17.5165L49.8333 11.7832L45.6666 7.72484L51.425 6.88317L54 1.6665Z" fill="#FED74E"/>
<path d="M98 1.6665L100.575 6.88317L106.333 7.72484L102.167 11.7832L103.15 17.5165L98 14.8082L92.85 17.5165L93.8333 11.7832L89.6666 7.72484L95.425 6.88317L98 1.6665Z" fill="#FED74E"/>
</svg>
